<svg width="34" height="34" viewBox="0 0 34 34" fill="none" xmlns="http://www.w3.org/2000/svg">
<g clip-path="url(#clip0_59_16)">
<path d="M17 1.34583C13.3266 1.29294 9.7568 2.56359 6.94294 4.92559C4.12908 7.28759 2.25907 10.5832 1.67462 14.2102C1.09017 17.8372 1.83031 21.5535 3.7598 24.6798C5.68928 27.8061 8.67926 30.1338 12.1834 31.2375C12.8917 31.3792 13.4584 30.6 13.4584 29.9625V27.9083C9.20836 28.8292 7.86253 25.8542 7.86253 25.8542C7.58619 24.9575 7.04247 24.1666 6.30419 23.5875C4.88753 22.5958 6.37503 22.6667 6.37503 22.6667C6.84808 22.7044 7.30577 22.8521 7.71161 23.0981C8.11745 23.344 8.4602 23.6814 8.71253 24.0833C9.91669 26.1375 12.6084 25.925 13.4584 25.5708C13.384 24.8665 13.5066 24.1554 13.8125 23.5167C8.99586 22.6667 6.37503 19.8333 6.37503 16.0083C6.32435 14.0134 7.06248 12.079 8.42919 10.625C8.04846 9.92164 7.86703 9.12766 7.90448 8.32875C7.94193 7.52983 8.19684 6.75631 8.64169 6.09166C9.49718 6.10848 10.3403 6.29928 11.1197 6.65244C11.899 7.00559 12.5984 7.5137 13.175 8.14583C14.405 7.72612 15.7012 7.5341 17 7.57916C18.2933 7.53907 19.5847 7.70647 20.825 8.07499C21.4103 7.45895 22.1129 6.96614 22.8914 6.62554C23.6699 6.28494 24.5087 6.10343 25.3584 6.09166C25.7935 6.75832 26.0483 7.52641 26.098 8.32095C26.1476 9.1155 25.9904 9.90934 25.6417 10.625C26.9827 12.0902 27.6948 14.0233 27.625 16.0083C27.625 19.8333 25.0042 22.6667 20.1875 23.5167C20.4935 24.1554 20.6161 24.8665 20.5417 25.5708V29.9625C20.5414 30.1361 20.5766 30.3079 20.6451 30.4673C20.7135 30.6268 20.8138 30.7707 20.9398 30.89C21.0658 31.0094 21.2149 31.1018 21.3778 31.1615C21.5408 31.2213 21.7142 31.2471 21.8875 31.2375C25.3082 30.0506 28.2 27.6944 30.0534 24.584C31.9068 21.4736 32.6027 17.8089 32.0184 14.2356C31.4342 10.6624 29.6073 7.41008 26.8598 5.05199C24.1123 2.69389 20.6205 1.38139 17 1.34583Z" fill="#DAD6CA"/>
</g>
<defs>
<clipPath id="clip0_59_16">
<rect width="34" height="34" fill="white"/>
</clipPath>
</defs>
</svg>
