<svg width="31" height="31" viewBox="0 0 31 31" fill="none" xmlns="http://www.w3.org/2000/svg">
<path d="M30.1372 20.5992C30.6954 19.0015 30.9999 17.2857 30.9999 15.4999C30.9999 13.7141 30.6954 11.9984 30.1372 10.4007C30.1236 10.3527 30.1075 10.3059 30.0879 10.2609C27.935 4.2847 22.2089 0 15.5001 0C8.79136 0 3.0651 4.2847 0.912379 10.2609C0.892827 10.306 0.876533 10.3527 0.863053 10.4007C0.304914 11.9984 0.000366211 13.7141 0.000366211 15.4999C0.000366211 17.2857 0.304914 19.0015 0.863053 20.5992C0.876681 20.6472 0.892827 20.694 0.912379 20.739C3.06525 26.7153 8.79136 30.9999 15.5001 30.9999C22.2089 30.9999 27.935 26.7152 30.0879 20.739C30.1075 20.694 30.1236 20.6473 30.1372 20.5992ZM15.5001 28.7781C14.9099 28.7781 13.9581 27.7098 13.1627 25.3232C12.7788 24.1715 12.4714 22.8476 12.2474 21.4073H18.7528C18.5289 22.8476 18.2215 24.1714 17.8377 25.3232C17.0421 27.7098 16.0904 28.7781 15.5001 28.7781ZM11.9779 19.1855C11.8711 18.0007 11.8146 16.7648 11.8146 15.4999C11.8146 14.2351 11.8711 12.9991 11.9779 11.8144H19.0223C19.1291 12.9991 19.1855 14.2351 19.1855 15.4999C19.1855 16.7648 19.1291 18.0007 19.0223 19.1855H11.9779ZM2.22211 15.5001C2.22211 14.2217 2.40416 12.9852 2.74292 11.8145H9.74929C9.64546 13.0237 9.59272 14.2629 9.59272 15.5001C9.59272 16.7372 9.64531 17.9764 9.74929 19.1856H2.74292C2.40416 18.0148 2.22211 16.7784 2.22211 15.5001ZM15.5001 2.22189C16.0904 2.22189 17.0423 3.29018 17.8377 5.67679C18.2215 6.82847 18.529 8.15242 18.7528 9.59251H12.2473C12.4713 8.15228 12.7786 6.82847 13.1626 5.67679C13.9581 3.29018 14.9099 2.22189 15.5001 2.22189ZM21.2508 11.8145H28.2572C28.596 12.9852 28.778 14.2217 28.778 15.5001C28.778 16.7784 28.596 18.015 28.2572 19.1856H21.2508C21.3547 17.9764 21.4074 16.7372 21.4074 15.5001C21.4074 14.2629 21.3547 13.0237 21.2508 11.8145ZM27.389 9.59265H20.9959C20.6007 6.86758 19.9227 4.42275 18.9716 2.68345C22.6592 3.68316 25.7143 6.23552 27.389 9.59265ZM12.0285 2.68331C11.0774 4.4226 10.3994 6.86743 10.0042 9.59265H3.61109C5.28595 6.23552 8.34091 3.68316 12.0285 2.68331ZM3.61109 21.4073H10.0042C10.3994 24.1324 11.0774 26.5772 12.0285 28.3167C8.34091 27.3168 5.28595 24.7646 3.61109 21.4073ZM18.9716 28.3167C19.9227 26.5774 20.6007 24.1326 20.9959 21.4073H27.389C25.7143 24.7646 22.6592 27.3168 18.9716 28.3167Z" fill="#DAD6CA"/>
</svg>
