<svg width="65" height="66" viewBox="0 0 65 66" fill="none" xmlns="http://www.w3.org/2000/svg">
<g clip-path="url(#clip0_104_34)">
<path d="M8.84723 0.803787C4.1126 0.803787 0.257739 4.6579 0.254272 9.39625C0.254272 14.1346 4.10913 17.9895 8.84723 17.9895C13.5836 17.9895 17.4365 14.1346 17.4365 9.39625C17.4365 4.6584 13.5833 0.803787 8.84723 0.803787Z" fill="#DAD6CA"/>
<path d="M15.2964 21.442H2.39718C1.78359 21.442 1.28589 21.9394 1.28589 22.5535V64.0722C1.28589 64.6861 1.78359 65.1835 2.39718 65.1835H15.2962C15.91 65.1835 16.4077 64.6858 16.4077 64.0722V22.5535C16.4079 21.9392 15.9102 21.442 15.2964 21.442Z" fill="#DAD6CA"/>
<path d="M48.2726 20.9532C43.5521 20.9532 39.4039 22.3906 36.8725 24.7345V22.5535C36.8725 21.9394 36.3748 21.4419 35.761 21.4419H23.3874C22.7736 21.4419 22.2759 21.9394 22.2759 22.5535V64.0722C22.2759 64.686 22.7736 65.1835 23.3874 65.1835H36.2743C36.8881 65.1835 37.3858 64.6858 37.3858 64.0722V43.5309C37.3858 37.6372 38.4699 33.9841 43.88 33.9841C49.2101 33.9905 49.609 37.9078 49.609 43.883V64.0722C49.609 64.686 50.1067 65.1835 50.7208 65.1835H63.6136C64.2272 65.1835 64.7249 64.6858 64.7249 64.0722V41.2974C64.7246 31.8254 62.8547 20.9532 48.2726 20.9532Z" fill="#DAD6CA"/>
</g>
<defs>
<clipPath id="clip0_104_34">
<rect width="64.4703" height="64.4703" fill="white" transform="translate(0.254272 0.758469)"/>
</clipPath>
</defs>
</svg>
