<svg width="67" height="67" viewBox="0 0 67 67" fill="none" xmlns="http://www.w3.org/2000/svg">
<g clip-path="url(#clip0_104_45)">
<path d="M0.158569 67L4.85024 49.8603C1.95514 44.8432 0.433896 39.1559 0.436677 33.324C0.44502 15.0913 15.282 0.254242 33.512 0.254242C42.3586 0.257023 50.6629 3.70277 56.9092 9.95463C63.1527 16.2065 66.5901 24.5163 66.5873 33.3546C66.579 51.5901 51.7419 66.4271 33.512 66.4271C27.9776 66.4243 22.524 65.0366 17.6932 62.4001L0.158569 67ZM18.5053 56.4125C23.1664 59.1796 27.6161 60.8371 33.5009 60.8399C48.6521 60.8399 60.9946 48.5086 61.0029 33.349C61.0085 18.1588 48.7245 5.8442 33.5231 5.83864C18.3607 5.83864 6.02663 18.1699 6.02107 33.3268C6.01829 39.5147 7.83155 44.1479 10.8768 48.9953L8.09853 59.1407L18.5053 56.4125ZM50.1734 41.2167C49.9676 40.8718 49.4169 40.666 48.5882 40.2516C47.7622 39.8373 43.6991 37.8377 42.9398 37.5623C42.1834 37.287 41.6327 37.148 41.0793 37.9767C40.5286 38.8027 38.9434 40.666 38.4623 41.2167C37.9812 41.7673 37.4973 41.8369 36.6713 41.4225C35.8453 41.0081 33.181 40.1376 30.0245 37.3204C27.5688 35.1289 25.9085 32.4229 25.4274 31.5942C24.9463 30.7682 25.3773 30.3204 25.7889 29.9088C26.1616 29.5389 26.6149 28.9438 27.0293 28.4599C27.4492 27.9815 27.5855 27.6367 27.8636 27.0833C28.139 26.5326 28.0027 26.0487 27.7941 25.6343C27.5855 25.2227 25.9336 21.154 25.2466 19.4993C24.5736 17.889 23.8923 18.106 23.3861 18.0809L21.8009 18.0531C21.2502 18.0531 20.3547 18.2589 19.5983 19.0877C18.8418 19.9164 16.706 21.9132 16.706 25.982C16.706 30.0507 19.6678 33.9803 20.0794 34.531C20.4938 35.0816 25.9057 43.4304 34.1961 47.0097C36.1679 47.8607 37.7086 48.3696 38.9073 48.7506C40.8874 49.3791 42.6895 49.2901 44.1134 49.0788C45.7014 48.8424 49.0026 47.0792 49.6923 45.1491C50.382 43.2163 50.382 41.5615 50.1734 41.2167Z" fill="#DAD6CA"/>
</g>
<defs>
<clipPath id="clip0_104_45">
<rect width="66.7458" height="66.7458" fill="white" transform="translate(0 0.254242)"/>
</clipPath>
</defs>
</svg>
