<svg width="67" height="67" viewBox="0 0 67 67" fill="none" xmlns="http://www.w3.org/2000/svg">
<g clip-path="url(#clip0_104_41)">
<path d="M58.8472 10.9708H8.40712C3.91184 10.9708 0.254272 14.6283 0.254272 19.1236V48.1306C0.254272 52.6259 3.91184 56.2835 8.40712 56.2835H58.8472C63.3425 56.2835 67 52.6259 67 48.1306V19.1245C67.0009 14.6283 63.3433 10.9708 58.8472 10.9708ZM54.8634 16.2896L33.6272 29.9713L12.3909 16.2896H54.8634ZM58.8472 50.9656H8.40712C6.84428 50.9656 5.57308 49.6935 5.57308 48.1315V19.2752L31.9863 36.2599C32.0218 36.2821 32.0599 36.2972 32.0962 36.3176C32.1343 36.3388 32.1733 36.3592 32.2123 36.3787C32.4171 36.4842 32.6281 36.5693 32.8435 36.6252C32.8657 36.6314 32.8878 36.634 32.91 36.6393C33.1467 36.6952 33.386 36.7298 33.6254 36.7298H33.6272C33.6289 36.7298 33.6307 36.7298 33.6307 36.7298C33.87 36.7298 34.1094 36.6961 34.3461 36.6393C34.3682 36.634 34.3904 36.6314 34.4126 36.6252C34.628 36.5693 34.8381 36.4842 35.0437 36.3787C35.0827 36.3592 35.1217 36.3388 35.1599 36.3176C35.1962 36.2972 35.2343 36.2821 35.2698 36.2599L61.683 19.2752V48.1306C61.6821 49.6935 60.41 50.9656 58.8472 50.9656Z" fill="#DAD6CA"/>
</g>
<defs>
<clipPath id="clip0_104_41">
<rect width="66.7458" height="66.7458" fill="white" transform="translate(0.254272 0.254242)"/>
</clipPath>
</defs>
</svg>
