<svg width="67" height="67" viewBox="0 0 67 67" fill="none" xmlns="http://www.w3.org/2000/svg">
<g clip-path="url(#clip0_104_31)">
<path d="M33.3729 0C24.5218 0 16.0333 3.51606 9.77469 9.77469C3.51606 16.0333 0 24.5218 0 33.3729C0 42.2239 3.51606 50.7124 9.77469 56.9711C16.0333 63.2297 24.5218 66.7458 33.3729 66.7458C42.2239 66.7458 50.7124 63.2297 56.9711 56.9711C63.2297 50.7124 66.7458 42.2239 66.7458 33.3729C66.7458 24.5218 63.2297 16.0333 56.9711 9.77469C50.7124 3.51606 42.2239 0 33.3729 0ZM42.1694 60.5801H41.9108C41.7165 60.5911 41.522 60.5622 41.3393 60.4953C41.1566 60.4283 40.9896 60.3247 40.8484 60.1908C40.718 60.0529 40.6163 59.8904 40.5495 59.7127C40.4826 59.5351 40.4519 59.3459 40.4591 59.1562V55.246C40.4757 53.9473 40.4869 52.6318 40.4869 51.308C40.4823 50.34 40.3409 49.3775 40.0669 48.4491C39.8073 47.5106 39.2843 46.6661 38.5596 46.0156C40.498 45.8285 42.4035 45.3881 44.2274 44.7058C45.766 44.1207 47.1576 43.2056 48.3045 42.0248C49.4364 40.8373 50.279 39.4022 50.7657 37.8365C51.3577 35.919 51.6394 33.9192 51.6 31.9128C51.6109 30.5119 51.3658 29.1208 50.877 27.808C50.3802 26.4847 49.6291 25.2716 48.666 24.2371C48.8739 23.7153 49.025 23.1726 49.1165 22.6185C49.2083 22.0623 49.2556 21.5005 49.2556 20.9387C49.2556 20.2156 49.1722 19.4925 49.0053 18.7889C48.8537 18.0673 48.6483 17.358 48.3907 16.667C48.2924 16.6286 48.1875 16.6097 48.082 16.6114H47.7761C47.1364 16.6169 46.5079 16.7226 45.9016 16.9201C45.2338 17.115 44.5805 17.3566 43.9465 17.6431C43.316 17.9257 42.7023 18.2442 42.1082 18.597C41.5103 18.9502 40.9819 19.2895 40.5147 19.6038C35.8362 18.2998 30.8901 18.2998 26.2116 19.6038C25.6899 19.255 25.1594 18.9193 24.6208 18.597C24.0184 18.2413 23.3942 17.9236 22.752 17.6459C22.1197 17.3499 21.4639 17.1071 20.7913 16.9201C20.197 16.7237 19.5761 16.6196 18.9502 16.6114H18.6443C18.5397 16.6099 18.4358 16.6288 18.3384 16.667C18.0771 17.3589 17.8634 18.0679 17.6988 18.7889C17.5486 19.4953 17.4763 20.2156 17.4735 20.9387C17.4735 21.5005 17.5208 22.0623 17.6153 22.6185C17.7071 23.1719 17.8545 23.7142 18.0603 24.2371C17.0997 25.273 16.3514 26.4871 15.8577 27.8107C15.3662 29.1231 15.1183 30.5142 15.1263 31.9156C15.0874 33.9112 15.3614 35.9007 15.9383 37.8115C16.4417 39.3772 17.2816 40.815 18.3968 42.0276C19.5509 43.2012 20.9415 44.1134 22.4739 44.7085C24.2899 45.4038 26.1922 45.8488 28.1278 46.0323C27.5873 46.5222 27.1586 47.1226 26.8707 47.7927C26.5969 48.4556 26.4099 49.1511 26.3145 49.8619C25.2941 50.3504 24.1781 50.6069 23.0468 50.6128C21.9961 50.6548 20.9591 50.3627 20.0849 49.7784C19.2462 49.1569 18.536 48.3787 17.9935 47.4868C17.7508 47.1122 17.4793 46.757 17.1815 46.4245C16.8673 46.0747 16.5209 45.7553 16.1469 45.4706C15.7783 45.1951 15.3741 44.9706 14.9455 44.8031C14.5237 44.6182 14.0683 44.5225 13.6078 44.5222C13.4966 44.525 13.3853 44.5361 13.2741 44.55C13.1221 44.5495 12.9708 44.5682 12.8235 44.6056C12.6941 44.6395 12.5717 44.696 12.462 44.7725C12.4121 44.8 12.3704 44.8402 12.3411 44.8891C12.3118 44.9379 12.2959 44.9936 12.2951 45.0506C12.3068 45.1845 12.3477 45.3141 12.415 45.4304C12.4823 45.5467 12.5743 45.6468 12.6845 45.7236C12.9431 45.9294 13.1573 46.0879 13.3297 46.1992L13.4131 46.2576C13.783 46.544 14.139 46.8527 14.4755 47.1837C14.787 47.4562 15.0679 47.7649 15.3098 48.1014C15.5601 48.4324 15.777 48.7856 15.9522 49.161C16.1553 49.5337 16.3694 49.962 16.5947 50.4487C17.1175 51.7669 18.0464 52.8821 19.2478 53.633C20.5076 54.3088 21.9204 54.6453 23.3527 54.6092C23.8366 54.6092 24.3233 54.5814 24.8044 54.5257C25.2827 54.4479 25.7583 54.3672 26.2366 54.2726V59.1201C26.2453 59.3155 26.2126 59.5106 26.1407 59.6925C26.0688 59.8745 25.9594 60.0392 25.8195 60.176C25.6796 60.3127 25.5124 60.4184 25.3288 60.4861C25.1453 60.5539 24.9495 60.5821 24.7543 60.569H24.5819C18.0966 58.4739 12.5723 54.1322 9.00391 48.3256C5.43552 42.5191 4.05749 35.6293 5.11796 28.897C6.17842 22.1646 9.6077 16.0321 14.7883 11.6036C19.9689 7.17522 26.5603 4.74193 33.3757 4.74193C40.191 4.74193 46.7825 7.17522 51.963 11.6036C57.1436 16.0321 60.5729 22.1646 61.6334 28.897C62.6938 35.6293 61.3158 42.5191 57.7474 48.3256C54.179 54.1322 48.6548 58.4739 42.1694 60.569V60.5801Z" fill="#DAD6CA"/>
</g>
<defs>
<clipPath id="clip0_104_31">
<rect width="66.7458" height="66.7458" fill="white"/>
</clipPath>
</defs>
</svg>
