<svg width="126" height="126" viewBox="0 0 126 126" fill="none" xmlns="http://www.w3.org/2000/svg">
<path d="M5 0.179807C5 0.284695 5.08467 1.25116 5.19244 2.33749C5.38487 4.3828 5.72356 7.94149 6.00067 10.8634C6.08534 11.7924 6.29317 13.9801 6.46252 15.7331C6.63186 17.4863 6.83969 19.6739 6.92436 20.6029C7.00904 21.5319 7.21686 23.7196 7.38621 25.4727C7.55556 27.2258 7.76339 29.4134 7.84806 30.3424C7.93273 31.2714 8.14056 33.4592 8.30991 35.2122C8.47925 36.9654 8.68708 39.153 8.77175 40.0821C8.85643 41.0111 9.06426 43.1987 9.2336 44.9519C9.40295 46.7049 9.61078 48.8927 9.69545 49.8217C9.78012 50.7507 9.98795 52.9383 10.1573 54.6914C10.3266 56.4445 10.5345 58.6322 10.6191 59.5612C10.7038 60.4902 10.9116 62.6778 11.081 64.431C11.2503 66.1842 11.4582 68.3718 11.5428 69.3008C11.6275 70.2298 11.8353 72.4174 12.0047 74.1705C12.174 75.9237 12.3819 78.1113 12.4665 79.0403C12.5512 79.9693 12.759 82.1569 12.9284 83.9101C13.0977 85.6632 13.3056 87.8509 13.3902 88.7798C13.4749 89.7088 13.6827 91.8966 13.8521 93.6496C14.0214 95.4028 14.2293 97.5904 14.3139 98.5194C14.3986 99.4484 14.6064 101.636 14.7758 103.389C14.9451 105.142 15.1837 107.705 15.3146 109.083C15.4455 110.462 15.5994 112.057 15.6533 112.627C15.7072 113.196 15.7841 113.691 15.8226 113.721C15.8611 113.758 16.5539 113.953 17.3544 114.163C18.1626 114.372 19.7253 114.784 20.8337 115.069C21.9498 115.361 23.7665 115.841 24.8748 116.133C25.991 116.425 27.7998 116.897 28.9006 117.189C30.8789 117.706 32.3413 118.088 36.829 119.265C38.0991 119.594 44.3956 121.25 50.8306 122.936L62.5154 126L63.8778 125.64C64.6245 125.438 66.7413 124.884 68.581 124.404C70.4207 123.925 72.2219 123.453 72.5837 123.355C72.9455 123.258 74.2233 122.921 75.4317 122.606C76.6402 122.291 78.5107 121.804 79.5884 121.52C80.666 121.235 83.1831 120.576 85.169 120.051C90.0107 118.785 92.0197 118.261 94.4059 117.639C95.5067 117.347 97.3926 116.852 98.6011 116.538C101.203 115.856 103.689 115.204 106.645 114.425C107.83 114.11 108.877 113.84 108.977 113.818C109.27 113.758 109.17 114.455 109.839 107.435C109.97 106.056 110.209 103.494 110.378 101.741C110.548 99.9879 110.748 97.8152 110.84 96.9086C110.925 95.9946 111.132 93.792 111.302 92.0014C111.471 90.2108 111.679 88.0232 111.764 87.1316C111.848 86.2401 112.056 84.0525 112.226 82.2619C112.395 80.4713 112.603 78.2837 112.687 77.3921C112.772 76.5005 112.98 74.3129 113.149 72.5223C113.319 70.7317 113.526 68.544 113.611 67.6526C113.696 66.761 113.904 64.5734 114.073 62.7828C114.242 60.9922 114.45 58.8045 114.535 57.913C114.619 57.0214 114.827 54.8337 114.997 53.0432C115.166 51.2526 115.374 49.0499 115.459 48.1359C115.551 47.2293 115.759 45.0343 115.92 43.2661C116.09 41.4905 116.267 39.6925 116.305 39.2579C116.344 38.8234 116.552 36.6358 116.767 34.3882C116.983 32.1406 117.19 29.9528 117.229 29.5184C117.267 29.0838 117.475 26.8962 117.691 24.6486C117.906 22.401 118.114 20.2133 118.153 19.7789C118.191 19.3443 118.368 17.5387 118.537 15.7705C118.699 13.9949 118.915 11.7924 118.999 10.8634C119.276 7.94149 119.615 4.3828 119.808 2.33749C119.915 1.25116 120 0.284695 120 0.179807V0H62.5H5V0.179807ZM98.1854 23.7271C98.1623 24.0492 98.1084 24.6336 98.0699 25.0232C97.9545 26.0796 97.8314 27.2932 97.7543 28.0574C97.7158 28.4246 97.6466 29.0988 97.6005 29.5558C97.5157 30.4024 97.4388 31.1142 97.2925 32.5526C97.2463 33.0022 97.177 33.6764 97.1309 34.051C97.0924 34.4182 97.0308 35.025 96.9922 35.3996C96.8461 36.8605 96.8537 36.8306 96.4612 37.0104C96.2688 37.1002 93.1127 38.4188 89.4488 39.9397C85.7848 41.4681 82.5981 42.7941 82.3748 42.8991C82.1516 42.9965 81.9514 43.0789 81.9284 43.0789C81.9053 43.0789 81.659 43.1763 81.3818 43.3036C81.1124 43.4235 80.8661 43.5283 80.843 43.5283C80.8276 43.5283 80.5814 43.6257 80.3042 43.7531C80.0348 43.873 79.7885 43.9779 79.7731 43.9779C79.75 43.9779 79.5345 44.0677 79.2958 44.1727C79.0573 44.2775 78.7031 44.4274 78.5107 44.5023C78.3183 44.5773 77.8719 44.7645 77.5101 44.9143C77.1483 45.0643 76.6634 45.2665 76.4324 45.3639C76.2014 45.4613 75.7165 45.6635 75.3548 45.8135C74.993 45.9633 74.562 46.1431 74.4003 46.2105C71.3829 47.4241 63.4545 50.7881 63.4006 50.8855C63.339 50.9754 63.3467 51.0429 63.416 51.1253C63.5006 51.2227 65.2557 51.2377 79.4883 51.2451C88.2787 51.2451 95.4991 51.2675 95.5452 51.2975C95.5913 51.3201 95.5991 51.5523 95.5683 51.8745C95.5452 52.1667 95.4836 52.7959 95.4452 53.2679C95.3989 53.7399 95.3297 54.5191 95.2912 54.9911C95.245 55.4631 95.1758 56.2422 95.1373 56.7142C95.091 57.1862 95.0217 57.9654 94.9832 58.4374C94.9371 58.9094 94.8679 59.6886 94.8294 60.1606C94.7831 60.6326 94.7138 61.4116 94.6753 61.8836C94.6292 62.3556 94.5599 63.1348 94.5214 63.6068C94.4753 64.0788 94.4059 64.858 94.3675 65.33C94.3213 65.802 94.252 66.5812 94.2135 67.0532C94.1674 67.5252 94.0981 68.3044 94.0596 68.7764C94.0134 69.2483 93.9441 70.0275 93.9056 70.4995C93.8595 70.9715 93.7902 71.7506 93.7517 72.2226C93.7054 72.6946 93.6362 73.4738 93.5977 73.9457C93.5516 74.4177 93.4823 75.1969 93.4438 75.6689C93.3975 76.1409 93.3283 76.9201 93.2898 77.3921C93.2436 77.8641 93.1744 78.6433 93.1359 79.1153C93.0898 79.5873 93.0204 80.3665 92.982 80.8383C92.9357 81.3103 92.8665 82.0895 92.828 82.5615C92.7818 83.0335 92.7126 83.8127 92.6741 84.2847C92.6278 84.7567 92.5585 85.5359 92.52 86.0079C92.4739 86.4799 92.4047 87.259 92.3661 87.731C92.3199 88.203 92.2506 88.9822 92.2121 89.4542C92.0814 90.9076 91.9812 92.0014 91.912 92.8854C91.8812 93.35 91.835 93.7396 91.8196 93.7546C91.7735 93.7994 90.1724 94.2714 88.2865 94.8034C87.332 95.0656 85.831 95.4926 84.9381 95.7474C82.421 96.4666 79.2573 97.3656 77.2792 97.9201C76.2862 98.2048 74.7466 98.6394 73.8537 98.894C72.9685 99.1488 71.4137 99.5908 70.413 99.8755C69.4047 100.16 67.7573 100.625 66.7567 100.909C65.7483 101.194 64.3859 101.584 63.7239 101.771L62.5308 102.116L60.0676 101.411C58.7205 101.022 56.5422 100.392 55.2259 100.018C53.9174 99.6358 52.3702 99.1937 51.8005 99.0289C51.2309 98.8641 50.4304 98.6394 50.0301 98.5194C49.6298 98.407 48.7138 98.1374 47.9902 97.935C47.2744 97.7253 45.6118 97.2458 44.2955 96.8712C42.987 96.4892 41.4398 96.0471 40.8702 95.8822C40.3005 95.7174 39.5 95.4926 39.0997 95.3728C37.4602 94.9008 35.6898 94.3914 34.6737 94.0992C33.1342 93.6646 33.1112 93.6572 33.0573 93.5148C33.0342 93.4474 32.9803 92.9678 32.934 92.451C32.8956 91.934 32.8263 91.1098 32.7801 90.6154C32.7416 90.121 32.6724 89.3418 32.6339 88.8922C32.5953 88.4352 32.5261 87.6786 32.48 87.2066C32.4415 86.7346 32.3644 85.9404 32.3259 85.4459C32.2798 84.9515 32.2106 84.1573 32.172 83.6853C32.1258 83.2133 32.0643 82.4491 32.0258 81.9997C31.9796 81.5427 31.9103 80.7709 31.8641 80.2765C31.818 79.7821 31.7486 78.9879 31.7102 78.5159C31.664 78.0439 31.6025 77.2797 31.5562 76.8301C31.5177 76.3731 31.4485 75.5865 31.4099 75.0695C31.3638 74.5526 31.3176 74.0282 31.2946 73.9083C31.2714 73.7809 31.2329 73.3539 31.2098 72.9493L31.1714 72.2226H38.4455H45.7196V72.5298C45.7196 72.6946 45.7503 73.1441 45.7966 73.5187C45.8349 73.9008 45.9043 74.665 45.9505 75.2194C45.9966 75.7738 46.066 76.5829 46.1044 77.0175C46.1429 77.4521 46.2121 78.2611 46.2584 78.8155C46.3508 79.9319 46.4354 80.9059 46.5739 82.3743L46.6663 83.3482L48.1365 83.7078C48.9447 83.9026 49.9224 84.1423 50.2995 84.2397C50.6845 84.3371 51.2155 84.4645 51.4927 84.5319C52.3393 84.7267 55.4415 85.4834 55.6877 85.5583C56.4728 85.7906 62.1921 87.1466 62.3845 87.1466C62.5154 87.1391 63.6008 86.8694 64.8092 86.5323C66.0177 86.1951 67.4186 85.8131 67.9267 85.6707C70.998 84.8316 74.9545 83.7453 76.5632 83.3033C77.587 83.0185 78.4722 82.7863 78.5338 82.7863C78.6646 82.7863 78.7185 82.3743 78.8186 80.6137C78.9033 79.2277 79.011 77.4145 79.1265 75.6315C79.1727 74.9721 79.2419 73.8933 79.2804 73.234C79.3189 72.5747 79.3882 71.4584 79.4345 70.7617C79.4728 70.0574 79.5422 68.9336 79.5884 68.2519C79.6269 67.5702 79.6884 66.5212 79.7115 65.9218L79.7654 64.828L70.921 64.7756C66.0562 64.7532 54.8873 64.7082 46.0967 64.6858L30.1092 64.6332L30.0629 63.8392C30.0321 63.4046 29.9783 62.6704 29.9398 62.2208C29.9012 61.7638 29.832 60.9397 29.7859 60.3853C29.7396 59.8309 29.6703 58.9993 29.6318 58.5498C29.5933 58.0928 29.5241 57.2537 29.4779 56.6768C29.3932 55.5905 29.3163 54.6764 29.1623 53.0057C29.1161 52.4663 29.093 51.8519 29.1084 51.6272L29.1315 51.2227L29.7474 50.9679C30.086 50.8255 30.7787 50.5409 31.2868 50.3311C31.7949 50.1289 32.5723 49.8141 33.0188 49.6343C33.4652 49.4545 34.2966 49.1173 34.8661 48.8851C35.4357 48.6529 36.2902 48.3083 36.752 48.1285C37.2216 47.9411 37.7373 47.7313 37.9067 47.6565C38.0759 47.5815 38.4609 47.4241 38.7534 47.3119C39.0536 47.1995 39.4307 47.0421 39.6 46.9747C39.7694 46.8997 40.2929 46.6899 40.7547 46.5027C41.2242 46.3153 42.1556 45.9407 42.8331 45.6635C43.5104 45.3863 44.3418 45.0493 44.6804 44.9143C45.0191 44.7795 45.7196 44.4949 46.2353 44.2851C46.7587 44.0753 47.5901 43.7381 48.0826 43.5359C48.5831 43.3335 50.2918 42.6368 51.8775 41.9925C54.8334 40.7863 56.1419 40.2544 57.2272 39.8198C57.566 39.685 58.6051 39.2654 59.5365 38.8834C61.0759 38.254 63.3467 37.3325 63.8009 37.1527C63.9471 37.0928 63.9626 37.0628 63.8856 36.9729C63.8009 36.8755 61.5994 36.8605 45.7581 36.8605H27.7306L27.6845 36.3136C27.6536 36.0214 27.5997 35.5194 27.5612 35.2122C27.5228 34.9052 27.4458 34.3432 27.3995 33.9762C27.2995 33.1894 27.2149 32.5152 27.0918 31.5786C27.0455 31.204 26.9762 30.6346 26.9377 30.305C26.8992 29.9754 26.83 29.436 26.7838 29.1063C26.7376 28.7766 26.6683 28.2222 26.6222 27.8702C26.5837 27.518 26.5144 26.9711 26.4759 26.649C26.4297 26.3343 26.3682 25.8098 26.3219 25.4877C26.2835 25.173 26.2141 24.6261 26.1758 24.274C26.1373 23.9219 26.0834 23.5772 26.0525 23.5023C26.0217 23.4349 26.0141 23.3225 26.0449 23.2626C26.0834 23.1652 30.163 23.1502 62.1613 23.1502H98.2393L98.1854 23.7271Z" fill="#A9DB3E"/>
</svg>
