<svg width="128" height="128" viewBox="0 0 128 128" fill="none" xmlns="http://www.w3.org/2000/svg">
<path d="M6.00005 0.304191C5.97404 1.49561 16.2215 113.514 16.3776 113.793C16.5336 114.123 62.9335 126.975 63.9998 127C64.7281 127 111.206 114.275 111.492 113.996C111.7 113.768 122.078 1.47026 122 0.177445C122 0.0760479 95.9126 0 63.9998 0C17.7821 0 6.00005 0.0760479 6.00005 0.304191ZM100.412 21.4709C100.438 21.7244 100.178 24.9691 99.84 28.6954L99.2678 35.489H71.3603C50.8134 35.489 43.4529 35.5651 43.4529 35.7679C43.4529 36.1988 44.4672 47.2765 44.6492 48.8481L44.7792 50.1917H71.3083H97.8113V50.8254C97.8113 51.1802 97.5253 54.6278 97.1611 58.4808C96.797 62.3593 96.2248 68.722 95.8606 72.6257C94.1441 91.2828 93.884 93.9192 93.7019 94.0713C93.5979 94.1473 86.8876 96.0232 78.7468 98.2285L63.9998 102.234L49.2268 98.2285C41.1119 96.0232 34.3757 94.1473 34.2716 94.0459C34.1416 93.9192 32.0089 72.5244 32.0089 71.1554C32.0089 71.0541 35.3121 71.0034 39.3694 71.0287L46.704 71.1048L46.9119 73.7664C47.016 75.2367 47.2501 77.8984 47.4321 79.7236L47.7443 83.019L55.5469 85.0976C59.8384 86.2383 63.5837 87.1762 63.8697 87.2016C64.494 87.2016 79.9172 83.171 80.1513 82.9429C80.2554 82.8415 80.6455 79.2926 81.0096 75.0339C81.3997 70.7752 81.7639 66.6434 81.8418 65.8321L82.024 64.3872H56.6653H31.3327L30.8905 59.1146C30.6565 56.2248 29.9282 48.1637 29.278 41.1926C27.6394 23.1692 27.5874 22.7637 27.5874 21.8511V21.04H63.9998C98.5135 21.04 100.412 21.0652 100.412 21.4709Z" fill="#A9DB3E"/>
</svg>
