<svg width="128" height="128" viewBox="0 0 128 128" fill="none" xmlns="http://www.w3.org/2000/svg">
<g clip-path="url(#clip0_129_28)">
<path d="M0 64V128H64H128V64V0H64H0V64ZM103 58.65C105.675 59.275 108.525 60.8 110.55 62.7C112.75 64.775 114.65 67.4749 114.175 67.9C113.6 68.425 105.525 73.5 105.3 73.5C105.15 73.5 104.8 73.125 104.525 72.65C103.775 71.4749 101.725 69.6 100.625 69.1499C99.35 68.6001 95.75 68.6001 94.6749 69.1499C92.65 70.175 91.775 71.5499 91.575 74C91.45 75.4749 91.5 75.85 92 76.6749C92.3 77.175 92.7499 77.75 92.9999 77.925C94.025 78.65 97.0749 80.15 100.625 81.675C107.975 84.875 110.85 86.625 113.725 89.65C116.775 92.85 117.975 96.15 118 101.25C118 106 116.675 109.35 113.5 112.5C108.4 117.575 99.625 119.275 90.375 116.975C86.7499 116.075 83.75 114.4 80.8 111.625C79.025 109.975 76.25 106.375 76.25 105.775C76.25 105.7 77.9 104.675 79.925 103.5C81.95 102.325 84.15 101.075 84.8 100.7L85.975 100L86.975 101.45C88.825 104.15 91.1499 105.9 94.075 106.8C96.375 107.5 100.25 107.375 102.125 106.525C104.55 105.45 106 103.475 106 101.25C106 99.65 105.375 98.425 103.925 97.0749C102.625 95.8749 101.425 95.25 95.6 92.65C90.35 90.325 88.5 89.3251 86.025 87.35C83.7 85.5 82 83.25 80.925 80.55C80.225 78.775 80.15 78.325 80.05 74.925C79.975 71.95 80.025 70.9 80.375 69.675C81.1 67.0001 82.375 64.95 84.475 62.95C86.6749 60.85 88.5251 59.775 91.5 58.9C93.35 58.3499 94.1251 58.2749 97.5 58.2749C100.125 58.25 101.9 58.375 103 58.65ZM69.7 81.3C69.625 103.7 69.6 103.9 69.0749 105.825C68.175 108.95 67.1499 110.85 65.2 112.9C62.575 115.65 59.9 117 55.625 117.65C52.7 118.1 50.9251 118.075 48 117.625C45.175 117.15 43.975 116.775 41.625 115.55C39.35 114.375 35.7251 110.8 34.5251 108.55C34.075 107.675 33.75 106.925 33.7999 106.9C33.825 106.875 35.7251 105.725 38 104.375C40.2749 103.025 42.425 101.7 42.8 101.45L43.45 101L44.2749 102.425C46.1 105.625 48.5251 107.25 51.3999 107.25C53.8749 107.25 55.825 106.275 56.7 104.625C57.7251 102.625 57.75 102.275 57.75 80.05V58.75H63.75H69.775L69.7 81.3Z" fill="#A9DB3E"/>
</g>
<defs>
<clipPath id="clip0_129_28">
<rect width="128" height="128" fill="white"/>
</clipPath>
</defs>
</svg>
