<svg width="126" height="126" viewBox="0 0 126 126" fill="none" xmlns="http://www.w3.org/2000/svg">
<path d="M87.1356 47.9286C87.1356 53.933 87.0618 58.8571 86.9881 58.8571C86.8898 58.8571 85.5136 58.1285 83.916 57.2242C82.3186 56.3197 80.8195 55.5912 80.5983 55.5912C80.0821 55.5912 67.3517 62.7261 66.5652 63.4547C66 63.9572 66 64.0074 66 71.7956C66 77.6744 66.0738 79.7093 66.3194 80.036C66.7864 80.6641 79.9101 88 80.5983 88C81.1636 88 93.6729 81.0911 94.5822 80.2872C94.9754 79.9103 95 78.6542 95 60.4901C95 42.3261 94.9754 41.07 94.5822 40.7182C93.7465 39.9897 88.2169 37 87.6762 37H87.1356V47.9286ZM83.5966 66.2937C85.2186 67.198 86.6686 68.1276 86.8407 68.3537C87.0372 68.63 87.1356 69.7606 87.1356 71.9212C87.1356 74.6345 87.0618 75.1621 86.7178 75.4887C86.1771 75.9409 80.9178 78.9557 80.6228 78.9557C80.4999 78.9557 79.0008 78.1517 77.2559 77.172L74.1102 75.4134V71.9212V68.404L74.7737 67.9768C75.6831 67.3488 80.3525 64.6857 80.5246 64.6606C80.6228 64.6355 81.9991 65.3892 83.5966 66.2937Z" fill="#A9DB3E"/>
<path d="M8.27458 58.8136C4.66187 60.8983 1.54068 62.7288 1.34407 62.9068C1.04915 63.1356 1 65.0932 1 74.0932V85H1.56525C1.86017 85 3.60508 84.1102 5.42373 83.0169L8.74153 81.0338L8.86441 74.5C8.93814 70.661 9.0856 67.8899 9.23305 67.7373C9.38052 67.6101 10.8305 66.7458 12.4526 65.8051L15.4509 64.1271L18.228 65.7034C19.7763 66.5932 21.2263 67.4576 21.4721 67.661C21.8407 68.0169 21.8898 68.6525 21.8898 74.2966C21.8898 77.7287 21.9882 80.6779 22.0865 80.8304C22.4797 81.4406 28.7712 85.0254 29.3119 84.9491L29.8771 84.8728L29.9509 74.1695L30 63.4915L29.4594 62.9577C28.5991 62.1695 15.9178 55 15.3771 55C15.1068 55.0255 11.9119 56.7289 8.27458 58.8136Z" fill="#A9DB3E"/>
<path d="M104.496 58.8372C100.858 60.9349 97.6636 62.9046 97.4423 63.2116C97.0491 63.6976 97 64.5163 97 71.6023C97 77.4861 97.0738 79.5581 97.3194 79.8907C97.7864 80.5302 110.91 88 111.573 88C112.41 88 118.602 84.4187 118.774 83.8302C118.847 83.5489 118.774 83.1907 118.602 82.9861C118.405 82.807 115.334 80.9907 111.745 78.9442L105.233 75.2605L105.159 71.6535L105.085 68.0721L106.019 67.4582C106.535 67.1 107.985 66.2302 109.263 65.5139L111.549 64.1837L114.67 65.9489L117.766 67.7139L117.89 70.7582C118.013 73.8535 118.16 74.4418 118.75 74.4418C119.118 74.4418 124.87 71.0395 125.582 70.4C125.951 70.0675 126 69.5302 126 66.6139V63.2116L125.336 62.7256C123.812 61.6511 112.016 55 111.573 55C111.327 55 108.157 56.714 104.496 58.8372Z" fill="#A9DB3E"/>
<path d="M38.9626 58.887C35.3184 60.9977 32.2406 62.8768 32.142 63.0569C32.0189 63.2114 31.9696 67.0983 32.0189 71.7059L32.0682 80.0717L38.8395 84.0359C43.2962 86.6357 45.857 87.9999 46.3494 87.9999C47.1866 88.0257 59.8427 80.8182 60.5815 79.9173C60.9508 79.4282 61 78.6045 61 71.4485C61 64.2668 60.9508 63.4688 60.5815 63.0055C59.8182 62.1045 47.1374 54.9743 46.3248 55.0001C45.8816 55.0001 43.1731 56.4158 38.9626 58.887Z" fill="#A9DB3E"/>
<path d="M110.085 70.4852C109.165 70.9844 109.142 71.0298 109.071 72.3456L109 73.7068L110.273 74.3421L111.523 75L112.679 74.3421C113.858 73.6842 113.858 73.6614 113.929 72.4136L114 71.1432L112.938 70.5533C111.665 69.8273 111.288 69.8273 110.085 70.4852Z" fill="#A9DB3E"/>
</svg>
