<svg width="126" height="126" viewBox="0 0 126 126" fill="none" xmlns="http://www.w3.org/2000/svg">
<path d="M89.7806 0C84.8837 0.0364163 80.0152 0.748385 75.313 2.11575L74.9822 2.22075C72.0163 1.69673 69.0137 1.40709 66.0023 1.3545C59.8161 1.2495 54.5017 2.751 50.2166 5.25C45.9945 3.78525 37.2351 1.26 28.0032 1.764C21.5754 2.11575 14.5596 4.06875 9.36069 9.555C4.17756 15.0413 1.43633 23.5305 2.01398 35.0805C2.17152 38.2673 3.08002 43.4647 4.58717 50.1952C6.09432 56.9258 8.21063 64.806 10.8521 71.9932C13.4935 79.1858 16.3871 85.6432 20.9085 90.0322C23.1666 92.232 26.2754 94.08 29.9409 93.9278C32.5141 93.8228 34.8405 92.694 36.8465 91.0298C37.8233 92.316 38.8683 92.8778 39.8188 93.3975C41.0161 94.0538 42.1819 94.5 43.3898 94.794C45.5586 95.3347 49.2713 96.0592 53.6195 95.319C55.1004 95.0723 56.66 94.5892 58.2145 93.9015C58.2722 95.634 58.3405 97.3297 58.4088 99.0465C58.6241 104.485 58.7606 109.51 60.3938 113.914C60.6564 114.634 61.3758 118.34 64.2116 121.611C67.0473 124.887 72.6033 126.929 78.9312 125.575C83.3949 124.619 89.0717 122.897 92.8422 117.532C96.5707 112.229 98.2511 104.622 98.582 92.2845C98.666 91.6177 98.7658 91.0508 98.8708 90.5205L99.7583 90.5993H99.8633C104.626 90.8145 109.794 90.1373 114.11 88.1318C117.933 86.3625 120.827 84.5723 122.933 81.396C123.458 80.6085 124.036 79.6582 124.193 78.0202C124.351 76.3822 123.411 73.8203 121.851 72.639C118.726 70.266 116.762 71.169 114.657 71.6048C112.582 72.0632 110.468 72.3199 108.344 72.3712C114.415 62.1495 118.768 51.2925 121.252 41.685C122.723 36.015 123.547 30.786 123.615 26.2132C123.684 21.6405 123.311 17.5928 120.57 14.091C112.005 3.15 99.9631 0.126 90.6471 0.021C90.3583 0.01575 90.0695 0.0105 89.7806 0.01575V0ZM89.5338 3.36C98.3457 3.276 109.605 5.74875 117.687 16.0755C119.504 18.396 120.044 21.7875 119.981 25.9665C119.913 30.1403 119.141 35.1383 117.729 40.614C114.987 51.219 109.809 63.5827 102.515 74.676C102.773 74.859 103.051 75.0106 103.345 75.1275C104.868 75.7575 108.339 76.2982 115.266 74.8755C117.009 74.508 118.285 74.2612 119.609 75.2692C119.93 75.5418 120.184 75.885 120.351 76.2721C120.518 76.6592 120.593 77.0797 120.57 77.5005C120.499 78.1377 120.264 78.7457 119.887 79.2645C118.548 81.2752 115.906 83.181 112.519 84.7507C109.521 86.1472 105.22 86.877 101.407 86.919C99.4957 86.94 97.7312 86.793 96.2346 86.3258L96.1401 86.289C95.5624 91.854 94.2338 102.842 93.3673 107.856C92.6741 111.899 91.4611 115.112 89.1452 117.516C86.8346 119.921 83.563 121.369 79.1623 122.314C73.7113 123.485 69.736 122.225 67.1733 120.068C64.6159 117.915 63.4449 115.059 62.7412 113.311C62.258 112.103 62.006 110.539 61.7644 108.449C61.5228 106.36 61.3443 103.803 61.2235 100.921C61.0626 96.5075 61.0101 92.0909 61.066 87.675C58.789 89.76 55.9595 91.1452 52.9158 91.665C49.2976 92.2792 46.068 91.6755 44.1407 91.1925C43.1907 90.954 42.2735 90.5995 41.41 90.1373C40.5172 89.6595 39.6665 89.1187 39.0994 88.053C38.7661 87.4426 38.6601 86.7339 38.8 86.0528C38.9775 85.3623 39.3804 84.7507 39.9448 84.315C40.9846 83.4697 42.3605 82.9973 44.4348 82.5667C48.2105 81.7897 49.5286 81.2595 50.3321 80.6243C51.0148 80.0783 51.7867 78.9757 53.1521 77.3587C53.1456 77.2871 53.1403 77.2153 53.1364 77.1435C50.6928 77.0748 48.2999 76.4308 46.152 75.264C45.3643 76.0935 41.3417 80.346 36.4369 86.247C34.3731 88.7145 32.094 90.132 29.6889 90.2318C27.2837 90.3368 25.1096 89.124 23.2611 87.3337C19.5694 83.748 16.6234 77.5793 14.0554 70.6073C11.4928 63.6353 9.40795 55.8705 7.92706 49.2555C6.44091 42.6405 5.56393 37.3065 5.4379 34.734C4.8865 23.8035 7.44393 16.4377 11.8288 11.7915C16.219 7.14525 22.2371 5.3865 28.1029 5.0505C38.632 4.44675 48.6307 8.1165 50.6524 8.904C54.549 6.258 59.5693 4.6095 65.8395 4.7145C68.8162 4.75624 71.7782 5.14027 74.6671 5.859L74.7721 5.81175C76.0437 5.3649 77.3393 4.98981 78.6529 4.68825C82.2197 3.85641 85.8663 3.41457 89.5286 3.3705L89.5338 3.36ZM90.332 6.8775H89.5653C86.5567 6.91945 83.5595 7.25707 80.6169 7.8855C87.1602 10.7835 92.1017 15.246 95.5834 19.698C98.002 22.7805 100.001 26.17 101.528 29.778C102.106 31.164 102.494 32.3347 102.715 33.243C102.825 33.6997 102.899 34.083 102.925 34.482C102.935 34.6815 102.946 34.8862 102.862 35.238C102.862 35.2537 102.836 35.2905 102.83 35.3062C102.988 39.9053 101.848 43.0238 101.712 47.4128C101.607 50.5942 102.421 54.3323 102.62 58.4115C102.809 62.244 102.347 66.4545 99.8581 70.5863C100.068 70.8382 100.257 71.0902 100.457 71.3422C107.042 60.9735 111.789 49.5023 114.32 39.7215C115.675 34.4557 116.395 29.6835 116.458 25.9035C116.51 22.1235 115.807 19.383 114.909 18.2385C107.861 9.2295 98.3247 6.9405 90.332 6.8775ZM65.1778 8.2215C58.9707 8.23725 54.5175 10.1115 51.1408 12.9202C47.6591 15.8235 45.3223 19.7978 43.7889 23.8665C41.9666 28.6965 41.3417 33.369 41.0949 36.54L41.1632 36.498C43.0379 35.448 45.5008 34.398 48.137 33.789C50.7732 33.1852 53.6142 32.9963 56.1874 33.9937C58.7606 34.9912 60.8874 37.338 61.6594 40.8975C65.3564 57.9967 60.5093 64.3545 58.7238 69.153C58.0465 70.8922 57.4662 72.6677 56.9856 74.4713C57.2114 74.4188 57.4373 74.3558 57.6631 74.3348C58.9234 74.2298 59.9107 74.6497 60.4988 74.9017C62.2948 75.6472 63.5289 77.2117 64.1958 78.9967C64.3691 79.464 64.4951 79.968 64.5686 80.4878C64.6463 80.7012 64.6819 80.9276 64.6737 81.1545C64.4746 87.6949 64.4973 94.2402 64.7419 100.779C64.8627 103.603 65.0413 106.092 65.2671 108.056C65.4929 110.014 65.8132 111.505 66.018 112.009C66.6902 113.689 67.6722 115.888 69.4472 117.385C71.2222 118.876 73.7691 119.873 78.4218 118.876C82.4549 118.009 84.9441 116.807 86.6088 115.08C88.2682 113.353 89.2607 110.948 89.8962 107.268C90.8467 101.755 92.7582 85.7692 92.9892 82.761C92.8842 80.493 93.2203 78.75 93.945 77.4217C94.6907 76.0567 95.846 75.222 96.8438 74.7705C97.3426 74.5447 97.81 74.3925 98.1934 74.2822C97.7875 73.6992 97.3619 73.1301 96.9173 72.576C95.4787 70.8318 94.3007 68.8883 93.4198 66.8063C92.998 65.9464 92.5479 65.1007 92.0702 64.2705C91.3718 63.0105 90.4896 61.4355 89.5653 59.6662C87.7168 56.1225 85.7055 51.828 84.6605 47.6437C83.6207 43.4647 83.4684 39.1388 86.1362 36.0885C88.4993 33.3795 92.6479 32.256 98.8761 32.886C98.6923 32.3348 98.582 31.878 98.2721 31.143C96.8641 27.8297 95.0261 24.7159 92.8054 21.882C87.5278 15.1358 78.9837 8.44725 65.7817 8.232H65.1778V8.2215ZM30.298 8.4945C29.6311 8.4945 28.9642 8.5155 28.3025 8.55225C22.9986 8.85675 17.9835 10.395 14.3968 14.196C10.8048 17.997 8.4417 24.2288 8.95633 34.545C9.05611 36.498 9.90684 41.9685 11.3667 48.468C12.8214 54.9675 14.8852 62.6167 17.3638 69.3735C19.8477 76.1302 22.8568 82.0102 25.7135 84.7927C27.1524 86.184 28.4023 86.7458 29.5366 86.6985C30.6761 86.646 32.0467 85.9898 33.7219 83.979C36.7762 80.2958 39.9461 76.71 43.227 73.227C40.8991 71.2063 39.1175 68.6322 38.0465 65.7421C36.9754 62.8519 36.6495 59.7387 37.0986 56.6895C37.6395 52.8098 37.713 49.182 37.65 46.3155C37.587 43.5225 37.3874 41.664 37.3874 40.5037C37.3865 40.4705 37.3865 40.4372 37.3874 40.404V40.3778L37.3822 40.3462C37.379 34.3024 38.4311 28.2992 40.491 22.617C41.9614 18.711 44.1512 14.742 47.4333 11.529C44.209 10.4685 38.485 8.8515 32.2883 8.547C31.6237 8.51288 30.9635 8.49537 30.298 8.4945ZM95.4049 36.225C91.8392 36.2723 89.8384 37.191 88.7881 38.3932C87.302 40.0995 87.1602 43.092 88.0844 46.7775C89.0034 50.4683 90.9044 54.5947 92.6899 58.023C93.5826 59.7397 94.4491 61.2832 95.1476 62.538C95.8512 63.798 96.3659 64.6905 96.681 65.4518C96.9698 66.1553 97.2901 66.7747 97.6157 67.3522C98.9968 64.4385 99.2436 61.5773 99.1019 58.5953C98.9181 54.9045 98.0621 51.1297 98.1881 47.3077C98.3299 42.84 99.2121 39.9315 99.2909 36.477C98.0023 36.3101 96.7043 36.2259 95.4049 36.225ZM52.1648 36.8288C51.0756 36.8389 49.9907 36.9692 48.93 37.2173C46.816 37.7307 44.7798 38.5235 42.8751 39.5745C42.2309 39.92 41.6177 40.3205 41.0424 40.7715L40.9268 40.8765C40.9584 41.643 41.1107 43.5015 41.1737 46.2368C41.2367 49.2293 41.1632 53.046 40.5855 57.1777C39.3304 66.1553 45.8474 73.5892 53.504 73.5997C53.9503 71.757 54.6855 69.888 55.4207 67.9193C57.5528 62.1758 61.7486 57.9863 58.2145 41.6378C57.6368 38.9603 56.492 37.8787 54.9166 37.2697C54.0336 36.9575 53.1012 36.8081 52.1648 36.8288ZM93.7402 37.8997H94.0027C94.3493 37.9102 94.6697 37.947 94.948 38.0153C95.2316 38.0783 95.4731 38.1727 95.6727 38.304C95.7751 38.3674 95.863 38.4515 95.9309 38.551C95.9987 38.6505 96.0449 38.7631 96.0666 38.8815L96.0613 38.9235C96.0716 39.1727 96.0076 39.4194 95.8775 39.6322C95.7226 39.9204 95.5282 40.1855 95.2999 40.4198C94.7671 41.0062 94.0537 41.398 93.2728 41.5327C92.5129 41.6246 91.746 41.4319 91.1197 40.992C90.8634 40.8196 90.6334 40.6109 90.437 40.3725C90.2671 40.1852 90.1526 39.9543 90.1062 39.7057C90.0952 39.5846 90.1091 39.4625 90.1471 39.347C90.185 39.2314 90.2462 39.1248 90.3268 39.0337C90.4991 38.838 90.7077 38.6775 90.9412 38.5612C91.4453 38.2777 92.128 38.0677 92.9 37.9523C93.1888 37.9103 93.4724 37.8893 93.7402 37.884V37.8997ZM52.6742 38.7817C52.9526 38.7817 53.2466 38.808 53.546 38.85C54.3494 38.9603 55.0636 39.1755 55.6098 39.4905C55.8761 39.6295 56.1132 39.8184 56.3082 40.047C56.4144 40.1682 56.4943 40.3101 56.5431 40.4637C56.5919 40.6172 56.6085 40.7792 56.5918 40.9395C56.5413 41.2414 56.4045 41.5222 56.1979 41.748C55.9831 42.0117 55.73 42.2417 55.447 42.4305C54.764 42.9142 53.9251 43.1258 53.0943 43.0238C52.2454 42.8842 51.4683 42.4625 50.8888 41.8268C50.6422 41.5707 50.4335 41.2808 50.2691 40.9658C50.096 40.6885 50.0202 40.3616 50.0538 40.0365C50.1326 39.4695 50.5999 39.1755 51.0568 39.0128C51.5772 38.8465 52.1233 38.7754 52.669 38.8027L52.6742 38.7817ZM100.252 77.3325L100.236 77.3378C99.4642 77.616 98.8288 77.7315 98.2932 77.9678C97.7514 78.1762 97.3049 78.5759 97.0381 79.0912C96.7072 79.695 96.4237 80.766 96.5077 82.5878C96.7453 82.7513 97.0077 82.8754 97.2849 82.9552C98.1829 83.2282 99.69 83.4068 101.37 83.3805C104.721 83.3438 108.843 82.5615 111.033 81.543C112.829 80.7086 114.497 79.6214 115.985 78.3142C108.67 79.8262 104.532 79.422 101.995 78.3773C101.366 78.1153 100.778 77.7667 100.252 77.3325ZM58.0779 77.826H57.9676C57.6893 77.8522 57.285 77.9467 56.5025 78.813C54.675 80.8605 54.0343 82.1468 52.5272 83.349C51.02 84.546 49.0613 85.1865 45.149 85.9897C43.9096 86.2417 43.2007 86.52 42.7281 86.7458C42.8804 86.8718 42.8646 86.9033 43.0957 87.024C43.6681 87.339 44.4033 87.6172 44.9967 87.7695C46.6771 88.1895 49.4394 88.6777 52.3224 88.1895C55.2054 87.696 58.204 86.3153 60.7614 82.7295C61.2025 82.11 61.2498 81.1965 60.8874 80.2148C60.5198 79.233 59.7164 78.3877 59.1492 78.1515C58.8117 77.9887 58.4498 77.8823 58.0779 77.8365V77.826Z" fill="#A9DB3E"/>
</svg>
