<svg width="126" height="126" viewBox="0 0 126 126" fill="none" xmlns="http://www.w3.org/2000/svg">
<g clip-path="url(#clip0_130_14)">
<path d="M57.8553 125.718C51.7969 125.232 45.3444 123.78 42.2113 122.2C38.5382 120.347 34.6808 116.849 33.3135 114.133C31.7371 111.001 31.7462 111.113 31.6361 93.2154C31.5626 81.4705 31.6256 76.2824 31.8451 75.1271C32.3995 72.235 33.5532 70.2519 36.2442 67.567C38.9178 64.899 41.4897 63.3663 44.1988 62.8261C45.169 62.6358 51.5486 62.5619 63.3529 62.6041C80.8468 62.7098 81.0779 62.7098 83.1984 62.0756C87.0739 61.0059 91.292 57.5958 93.2023 53.9881C95.243 50.133 95.668 47.3635 95.6685 37.9177L95.6687 30.4104L103.662 30.5161L111.656 30.6219L113.462 31.5415C119.425 34.59 123.543 42.0095 125.452 53.1445C126.067 56.7322 126.186 64.0269 125.699 68.4158C124.744 77.052 122.085 83.9271 118.023 88.261C114.658 91.8508 112.013 93.0051 106.151 93.4353C102.371 93.7101 89.1019 93.6255 71.0628 93.2133L63.4867 93.0336V93.9744V94.9152L69.1617 95.0949C72.283 95.2006 78.664 95.2746 83.3418 95.2746C88.0196 95.2746 92.224 95.3803 92.6849 95.4437L93.5228 95.6128V101.753C93.5228 111.072 92.7185 114.379 89.6581 117.645C83.7162 123.984 72.2492 126.908 57.8548 125.753L57.8553 125.718ZM69.119 123.727C78.1072 123.262 87.1055 119.011 89.829 113.954C91.1909 111.424 91.4645 109.676 91.4893 103.34L91.5103 97.5356L87.0854 97.3665C84.6516 97.2608 78.1951 97.1868 72.7376 97.1656C67.2801 97.1656 62.5434 97.0493 62.2115 96.9648C61.6329 96.8062 61.6077 96.6794 61.6077 93.8613V90.9205L69.0497 91.1214C73.1428 91.2377 83.7326 91.3222 92.5826 91.3222C109.614 91.3222 109.843 91.3222 112.428 90.0347C116.634 87.9629 120.21 82.9377 122.078 76.4716C123.507 71.5257 123.902 68.3683 123.932 61.6242C123.963 54.5409 123.583 51.9014 121.696 46.1141C119.566 39.5867 116.588 35.4008 112.632 33.3776L110.85 32.4685L106.276 32.3628C103.759 32.2571 100.826 32.3544 99.7565 32.4685L97.8122 32.6482V37.8785C97.8122 40.7558 97.6778 44.3604 97.514 45.8879C96.78 52.7207 94.405 57.3971 89.9608 60.7585C87.6774 62.4857 86.2565 63.2479 83.8737 64.0206C82.164 64.5808 81.6911 64.5914 63.3509 64.5914L44.5783 64.5967L43.0675 65.2098C41.0627 66.0237 38.0812 68.1579 36.6967 69.771C35.1578 71.5637 34.0214 73.9823 33.6796 76.1926C33.2995 78.6492 33.5452 108.034 33.9611 109.951C34.7549 113.602 37.6398 117.203 41.6598 119.558C44.8141 121.407 47.7123 122.307 53.3108 123.176C56.4181 123.662 62.8462 124.085 64.9598 123.958C65.6969 123.958 67.5702 123.812 69.119 123.727ZM78.3712 116.396C75.9607 115.804 74.3468 114.612 73.3339 112.673C72.558 111.187 72.5212 108.238 73.2604 106.74C76.4897 100.189 86.2903 102.405 86.2756 109.684C86.2685 113.253 83.7643 115.979 80.116 116.39C79.4524 116.496 78.6662 116.496 78.3712 116.396ZM13.7359 92.0548C7.79543 89.9872 3.63038 83.8647 1.11752 73.5066C0.114769 69.3714 -0.222072 64.3842 0.143119 59.0567C0.67862 51.2344 1.71718 46.7578 4.14993 41.7844C5.44993 39.1269 5.9785 38.3658 7.82672 36.4885C10.1596 34.1196 12.5633 32.7243 15.483 32.0425C16.5865 31.7888 22.7001 31.662 39.7535 31.5457L62.5489 31.3872V29.6324V27.8777L47.6285 27.772L32.7081 27.6663L32.5464 27.0638C32.287 26.0913 32.3637 16.6983 32.6524 13.9288C33.0934 9.7154 33.966 7.47973 36.0419 5.24511C37.532 3.64156 40.7349 2.01263 43.9093 1.24521C48.4826 0.138474 50.5489 0 62.4138 0C74.4142 0 77.4493 0.211412 80.9096 1.26318C85.6392 2.70712 90.4782 7.1383 91.9148 11.3422C92.8441 14.061 92.9866 16.84 92.9825 32.1208C92.9782 48.317 92.9195 49.0231 91.4373 51.8105C89.8645 54.7618 85.6623 58.2565 82.0546 59.6127C80.553 60.1729 80.1365 60.194 64.6917 60.2469C48.0462 60.3526 43.4749 60.5323 40.6623 61.4086C36.4806 62.7162 32.4997 66.0692 30.648 69.8439C28.8847 73.4368 28.8216 73.8766 28.6941 83.4482L28.5786 92.1129L23.5723 92.2926C16.3998 92.5463 15.2407 92.504 13.7353 91.9861L13.7359 92.0548ZM48.6235 19.009C50.409 17.8103 51.0167 16.6285 51.0167 14.3559C51.0167 12.6149 50.9326 12.2745 50.1997 11.2312C48.525 8.83065 45.5046 8.08542 42.9043 9.43211C38.7914 11.5631 38.9859 17.4171 43.2361 19.4287C44.7658 20.1475 47.2019 19.971 48.6235 19.009Z" fill="#A9DB3E"/>
</g>
<defs>
<clipPath id="clip0_130_14">
<rect width="126" height="126" fill="white"/>
</clipPath>
</defs>
</svg>
