<svg width="141" height="126" viewBox="0 0 141 126" fill="none" xmlns="http://www.w3.org/2000/svg">
<g clip-path="url(#clip0_129_47)">
<mask id="path-1-inside-1_129_47" fill="white">
<path d="M96.5378 0.414547C95.9806 0.464796 95.1941 0.59042 94.4633 0.734887C94.0361 0.822823 93.6212 0.910759 93.5345 0.923321C92.9029 1.05523 90.9709 1.65194 90.0049 2.02252C88.2461 2.68833 85.7197 3.90059 84.122 4.84276C83.6948 5.09401 83.2674 5.34526 83.1622 5.40179C81.9052 6.12412 78.8523 8.22202 77.3352 9.40917C76.1957 10.3011 75.3349 10.992 75.0811 11.2119C74.9201 11.35 74.5733 11.6453 74.307 11.8714C74.0408 12.0975 73.6506 12.4367 73.4401 12.6251C73.2296 12.8136 72.7217 13.2659 72.3193 13.6301C71.9168 13.9944 71.2789 14.5848 70.9012 14.9491C70.5296 15.3135 70.1457 15.6777 70.0528 15.7595L69.8857 15.9101L69.1054 15.1627C68.6781 14.7544 68.1517 14.2582 67.9351 14.0698C67.7184 13.8813 67.2539 13.4668 66.9071 13.159C66.5603 12.845 66.1455 12.4807 65.9783 12.3425C64.9874 11.5071 64.7336 11.2935 64.2506 10.9104C61.2596 8.50467 57.7733 6.11784 55.4511 4.88045C55.1972 4.74226 54.8628 4.55382 54.7081 4.4659C54.5532 4.37167 54.0825 4.12671 53.6553 3.91315C50.6458 2.40567 47.8715 1.40697 45.2337 0.879353C43.7845 0.59042 43.153 0.533889 41.3943 0.533889C39.71 0.533889 39.6109 0.540171 38.3909 0.791417C37.0534 1.06151 35.5549 1.65821 34.4836 2.35543C33.0779 3.2662 31.7714 4.60408 30.7805 6.14296C30.4461 6.67058 29.9508 7.52481 29.8021 7.85144C28.3779 10.9229 27.6162 14.1074 27.2632 18.4351C27.1641 19.6915 27.1641 24.6661 27.2632 25.6585C27.3003 26.0354 27.3623 26.7137 27.3994 27.166C27.6596 30.3066 28.415 34.9107 29.2325 38.334C29.3562 38.8427 29.4368 39.3263 29.4182 39.408C29.381 39.5649 29.3749 39.5649 27.511 40.1365C24.6128 41.0159 20.4639 42.5862 18.3709 43.5975C18.086 43.7294 17.8384 43.8425 17.8136 43.8425C17.7516 43.8425 14.7732 45.3499 14.5192 45.507C14.4016 45.5824 14.123 45.7393 13.9 45.8649C11.9122 46.9517 9.44763 48.6413 7.45367 50.2869C6.50623 51.072 4.71043 52.8684 3.99211 53.7541C2.35112 55.783 1.27363 57.7364 0.722509 59.6836C0.332387 61.0528 0.307617 61.2663 0.307617 63C0.307617 64.8027 0.381926 65.3304 0.809203 66.6745C1.41606 68.5526 2.37589 70.3238 3.74442 72.1077C4.84047 73.5335 6.54339 75.2357 8.35157 76.718C9.76345 77.8738 12.1042 79.5068 13.4356 80.2732C13.5409 80.3298 13.9681 80.581 14.3954 80.8322C15.1571 81.2782 18.5814 83.0432 19.0707 83.2379C19.2069 83.2944 19.4979 83.4263 19.7209 83.5269C21.8573 84.5256 25.6656 85.945 28.4398 86.7804C28.9723 86.9375 29.4182 87.0756 29.4243 87.0819C29.4305 87.0882 29.3997 87.2453 29.3501 87.4336C29.0714 88.4889 28.4335 91.5604 28.1426 93.2438C27.9692 94.2173 27.9259 94.5188 27.74 95.8818C27.5233 97.4521 27.48 97.8478 27.3994 98.7084C27.3623 99.1229 27.3003 99.7574 27.257 100.122C27.1517 101.058 27.1579 107.238 27.2632 108.287C27.5728 111.365 27.9505 113.318 28.6379 115.485C29.6597 118.708 31.2759 121.358 33.2575 123.048C34.6199 124.21 36.1122 124.982 37.9266 125.46C39.227 125.799 39.6667 125.843 41.704 125.843C43.4997 125.843 43.6731 125.83 45.0788 125.585C47.2214 125.221 50.1133 124.304 52.1692 123.349C52.392 123.249 52.6832 123.117 52.8194 123.06C53.1413 122.929 55.4326 121.754 55.9341 121.459C56.1509 121.327 56.3366 121.226 56.349 121.226C56.4605 121.226 59.631 119.21 60.6961 118.463C61.8541 117.646 64.6283 115.536 65.1795 115.046C65.3032 114.939 65.6067 114.681 65.8543 114.474C66.102 114.267 66.4674 113.953 66.6656 113.783C66.8575 113.607 67.291 113.23 67.6254 112.935C67.9599 112.64 68.6286 112.012 69.1178 111.534C69.6008 111.063 70.0343 110.674 70.0776 110.674C70.1147 110.674 70.3625 110.881 70.6225 111.133C71.409 111.892 72.4802 112.891 72.7899 113.155C72.9571 113.293 73.3658 113.651 73.7002 113.946C74.9387 115.046 76.2824 116.151 77.589 117.15C79.3724 118.513 81.7503 120.133 83.348 121.069C84.766 121.898 86.6299 122.891 87.404 123.23C87.5897 123.312 87.887 123.444 88.0542 123.519C90.6178 124.706 93.8069 125.604 96.3706 125.874C97.1756 125.956 99.3925 125.956 99.8446 125.874C101.764 125.529 102.811 125.221 103.894 124.687C106.935 123.192 109.331 120.177 110.818 115.982C111.672 113.576 112.291 110.498 112.551 107.376C112.644 106.183 112.694 101.145 112.62 100.341C112.582 99.9583 112.52 99.2422 112.483 98.7398C112.26 95.7562 111.629 91.6421 110.904 88.4701C110.526 86.8056 110.539 86.8684 110.632 86.7804C110.681 86.7302 111.319 86.5041 112.05 86.2717C112.781 86.0393 113.524 85.7943 113.691 85.7315C113.864 85.6687 114.446 85.4614 114.991 85.2667C116.44 84.7454 118.725 83.8346 119.666 83.4011C119.889 83.2944 120.18 83.1688 120.317 83.1123C120.453 83.0557 120.812 82.8924 121.109 82.7417C121.407 82.5909 121.667 82.4716 121.691 82.4716C121.747 82.4716 123.884 81.3975 124.125 81.2468C124.243 81.1713 124.552 81.0017 124.806 80.8698C125.06 80.7316 125.444 80.5181 125.661 80.3862C125.871 80.2543 126.063 80.1476 126.076 80.1476C126.094 80.1476 126.212 80.0784 126.342 79.9968C126.466 79.9151 126.881 79.6576 127.252 79.4252C128.794 78.4579 130.516 77.233 131.624 76.316C132.559 75.5435 132.844 75.2796 133.873 74.2559C135.482 72.6354 136.473 71.3979 137.359 69.9093C139.792 65.8014 140.065 61.75 138.17 57.7427C137.215 55.7201 136.176 54.3006 134.126 52.2278C132.8 50.8837 132.342 50.4817 130.757 49.2568C130.119 48.7606 127.779 47.1715 127.066 46.7506C125.617 45.8901 124.905 45.5007 123.382 44.7281C121.63 43.8425 121.518 43.7859 119.945 43.1075C119.437 42.8877 118.961 42.6804 118.892 42.6491C118.688 42.5485 117.375 42.0398 115.889 41.487C114.644 41.0285 113.846 40.7521 111.226 39.9105C110.415 39.6529 110.279 39.5399 110.328 39.1818C110.347 39.0688 110.489 38.3779 110.65 37.6555C111.468 33.9371 111.963 30.6144 112.236 27.1032C112.273 26.6195 112.329 25.8972 112.359 25.4889C112.44 24.5342 112.44 20.2568 112.359 19.4087C112.329 19.0444 112.273 18.3975 112.236 17.9641C112.025 15.4894 111.604 13.2783 110.935 11.0611C109.901 7.63788 108.074 4.69202 105.901 2.92701C104.346 1.67077 102.631 0.910759 100.445 0.527609C99.9127 0.433391 97.1881 0.351736 96.5378 0.414547ZM99.8507 6.58892C101.851 7.04117 103.189 8.25343 104.346 10.6466C105.647 13.3412 106.272 16.5446 106.452 21.3873C106.489 22.499 106.409 25.1435 106.291 26.4436C106.26 26.808 106.198 27.4423 106.161 27.8569C106.043 29.2011 105.82 30.8845 105.542 32.5364C105.368 33.5666 105.312 33.8805 104.984 35.5513C104.811 36.4244 104.446 38.0073 104.408 38.0449C104.39 38.0638 104.229 38.0449 104.049 38.001C103.696 37.9256 102.365 37.6366 101.399 37.4294C100.582 37.2535 97.8568 36.7385 97.1261 36.6192C96.9404 36.5877 96.2592 36.4747 95.609 36.3741C92.8596 35.922 89.6023 35.4948 86.4937 35.187C86.1779 35.1556 85.8744 35.0929 85.825 35.0489C85.7692 35.0049 85.5401 34.6971 85.3048 34.3642C84.5059 33.2148 82.896 30.985 82.4005 30.3379C82.3076 30.2186 82.0104 29.8229 81.738 29.4586C80.9453 28.3971 78.4621 25.2817 77.651 24.3207C76.3009 22.7315 75.9295 22.2981 74.8829 21.1109C74.5113 20.6964 74.2142 20.3195 74.2142 20.2692C74.2142 20.0996 76.7654 17.694 78.3631 16.3624C78.6108 16.1551 78.9328 15.8851 79.0752 15.7656C79.2176 15.6463 79.4963 15.4202 79.6944 15.2632C79.8926 15.1061 80.1403 14.9052 80.2455 14.8172C80.6419 14.4781 82.4501 13.1277 83.317 12.5246C84.1839 11.9153 86.4937 10.4267 86.568 10.4267C86.5866 10.4267 86.7042 10.3576 86.8343 10.276C87.3854 9.91166 89.3484 8.88783 90.3145 8.45443C92.3889 7.52481 94.2776 6.91555 96.0487 6.60148C97.0208 6.43189 99.1077 6.42562 99.8507 6.58892ZM43.6856 6.74595C46.0015 7.1982 48.2556 8.00218 50.8563 9.30867C55.03 11.4129 59.0179 14.2143 63.5075 18.2091C64.1825 18.8058 65.6067 20.2316 65.6067 20.307C65.6067 20.3384 65.3094 20.6901 64.9441 21.0859C64.5726 21.4816 64.1019 22.0092 63.8852 22.2541C63.6747 22.5053 63.2969 22.9387 63.0493 23.2277C61.7054 24.7854 60.8695 25.7967 59.2409 27.8569C57.8724 29.5843 55.6121 32.6054 54.4912 34.2135C53.8968 35.0677 53.8597 35.1053 53.6243 35.1368C53.4881 35.1556 52.9184 35.2122 52.3549 35.2687C51.3827 35.3628 50.943 35.4131 49.011 35.6456C48.0822 35.7586 45.7167 36.0852 45.1407 36.1795C44.9364 36.2108 44.3914 36.2988 43.9332 36.3741C42.893 36.5375 41.8835 36.7134 40.2983 37.0023C40.1187 37.0337 39.8214 37.0839 39.6481 37.1153C39.035 37.2284 37.4684 37.555 35.9759 37.888C35.4187 38.0073 35.3134 37.9947 35.2514 37.7811C35.1524 37.4043 34.5764 34.7725 34.3969 33.868C34.143 32.549 33.7776 30.3505 33.6537 29.333C33.2389 25.9852 33.1336 24.1511 33.177 21.1989C33.2142 18.3472 33.3441 16.9843 33.7838 14.8549C34.3907 11.8965 35.3196 9.82372 36.6571 8.42302C37.6541 7.37407 38.2857 7.01605 39.6481 6.71455C40.1126 6.61405 40.3849 6.60148 41.673 6.62033C42.6948 6.63918 43.3263 6.67686 43.6856 6.74595ZM70.5421 25.3067C70.8083 25.6145 71.3285 26.2175 71.6938 26.6447C72.0654 27.0718 72.5112 27.5868 72.6908 27.7941C73.3472 28.5541 75.9047 31.7262 76.4125 32.4171C76.4806 32.5113 76.7593 32.8755 77.0317 33.2336C77.6014 33.981 77.8677 34.3642 77.8677 34.4458C77.8677 34.4836 76.9883 34.4836 75.657 34.4458C72.8208 34.3705 67.2352 34.3705 64.232 34.4458C61.9469 34.5024 61.8913 34.5024 61.8913 34.3831C61.8913 34.3139 61.9965 34.1319 62.1266 33.9684C62.2504 33.8052 62.6777 33.2588 63.0678 32.7499C63.4579 32.2412 63.879 31.7073 63.9966 31.5628C64.1144 31.4121 64.3559 31.1169 64.5229 30.9032C65.2537 29.9737 66.3002 28.7049 67 27.8883C67.1734 27.6936 67.5635 27.2351 67.8669 26.877C68.7029 25.8972 69.8299 24.7477 69.9538 24.7477C70.0095 24.7477 70.2758 24.999 70.5421 25.3067ZM76.7841 40.5762C77.5332 40.6077 78.5798 40.6642 79.1061 40.6957C79.6324 40.7333 80.5676 40.7898 81.1807 40.8276C81.7936 40.8652 82.351 40.9092 82.4192 40.9217C82.5306 40.9469 83.8867 42.9756 85.1499 45.0045C85.342 45.3122 85.732 45.9341 86.0107 46.3864C86.4998 47.1777 88.5867 50.6826 88.9025 51.2542C88.9893 51.4113 89.3732 52.0833 89.7509 52.7491C90.1286 53.415 90.4383 53.9677 90.4383 53.9803C90.4383 53.9929 90.5497 54.1938 90.6859 54.4199C90.8222 54.6461 90.9337 54.847 90.9337 54.8659C90.9337 54.8847 91.0019 55.0041 91.0761 55.136C91.1566 55.2617 91.33 55.5819 91.46 55.8394C91.5963 56.0971 91.7635 56.411 91.8316 56.5304C91.9059 56.6498 92.1412 57.0894 92.3518 57.5039C92.5685 57.9185 92.7605 58.2829 92.7914 58.3206C92.8348 58.377 93.4354 59.5579 94.643 61.9635C94.872 62.4095 95.0888 62.8555 95.126 62.9498C95.1941 63.1067 95.1074 63.3078 93.9556 65.6192C93.2744 66.9948 92.6924 68.1442 92.6675 68.1819C92.6366 68.2134 92.4137 68.6405 92.166 69.1241C91.9182 69.6078 91.6582 70.1039 91.5839 70.2234C91.5158 70.3427 91.3486 70.6568 91.2124 70.9143C91.0823 71.1718 90.9089 71.4922 90.8285 71.6178C90.7541 71.7497 90.6859 71.869 90.6859 71.8816C90.6859 71.8941 90.4754 72.2836 90.2154 72.7484C89.9553 73.2068 89.6828 73.6968 89.6085 73.835C89.3484 74.306 88.5372 75.7193 88.1843 76.3098C87.9923 76.6301 87.8374 76.9128 87.8374 76.9253C87.8374 76.9379 87.757 77.0761 87.6517 77.2269C87.5526 77.3775 87.466 77.5157 87.466 77.5408C87.466 77.566 87.3854 77.7042 87.2801 77.8549C87.181 78.0057 87.0944 78.1439 87.0944 78.1627C87.0944 78.1879 87.0015 78.3512 86.8839 78.5333C86.7723 78.7092 86.308 79.4691 85.8559 80.2103C84.8528 81.8498 84.2707 82.7794 83.3046 84.2743L82.5616 85.4112L82.1219 85.4489C76.0533 85.9262 66.0216 85.9953 59.693 85.6122C59.117 85.5745 58.3429 85.5305 57.9715 85.5053C57.6061 85.4866 57.2655 85.4363 57.2222 85.3986C57.1416 85.3358 54.7266 81.655 53.9959 80.4867C53.3024 79.3687 51.2217 75.9015 50.8501 75.242C50.7697 75.0912 50.4477 74.5259 50.1442 73.9921C49.8408 73.4582 49.4879 72.8363 49.3701 72.6101C49.2464 72.384 49.0482 72.0198 48.9243 71.8061C48.8005 71.5864 48.7014 71.3916 48.7014 71.379C48.7014 71.3666 48.6333 71.2471 48.559 71.1152C48.4784 70.9896 48.2802 70.6253 48.1132 70.3176C47.9521 70.0035 47.6858 69.4947 47.5186 69.1869C46.2553 66.7875 44.5525 63.3329 44.5525 63.1822C44.5525 63.0754 46.5216 59.0428 47.2833 57.5982C48.528 55.224 48.6704 54.9602 49.0544 54.2754C49.2401 53.9552 49.4879 53.5029 49.6116 53.2705C50.0327 52.4916 51.4199 50.0733 52.1196 48.8988C54.1941 45.4316 56.8629 41.2547 57.1602 41.0222C57.3088 40.9029 57.2778 40.9092 59.4761 40.7584C60.7209 40.6768 63.0988 40.5699 65.0184 40.5135C67.0928 40.4506 75.0191 40.4883 76.7841 40.5762ZM49.0977 41.8074C49.302 41.889 49.1844 42.178 48.4909 43.296C48.1069 43.9241 47.6363 44.6904 47.4505 45.0045C47.2586 45.3122 46.9675 45.8022 46.7879 46.0911C46.6145 46.3801 46.4721 46.625 46.4721 46.6376C46.4721 46.6501 46.1935 47.1337 45.8529 47.7053C45.5123 48.2832 45.2337 48.7669 45.2337 48.7795C45.2337 48.7921 45.1469 48.9491 45.0416 49.1312C44.9302 49.3134 44.763 49.6212 44.6577 49.8095C44.5525 49.998 44.4224 50.2304 44.3543 50.3246C44.2923 50.4125 44.2429 50.5004 44.2429 50.5193C44.2429 50.5382 44.1438 50.7329 44.0199 50.9527C43.8961 51.1663 43.6546 51.6186 43.4812 51.9451C43.3078 52.2718 43.1096 52.6424 43.0354 52.7617C42.9609 52.881 42.7814 53.2202 42.639 53.5155C42.4904 53.8107 42.2984 54.1749 42.2118 54.3257C42.125 54.4765 41.9268 54.8533 41.7659 55.1737C41.4128 55.8583 41.3139 55.896 41.0971 55.4375C40.6945 54.5706 39.1403 50.4943 38.36 48.2393C37.7903 46.6061 37.0597 44.3449 37.0597 44.213C37.0597 44.0874 37.2887 43.8676 37.5055 43.7859C38.1929 43.5221 44.4657 42.3789 47.5248 41.9645C47.8159 41.9205 48.206 41.8639 48.3918 41.8387C48.8438 41.7697 48.9801 41.7634 49.0977 41.8074ZM93.5035 42.1717C94.2899 42.2973 95.095 42.4229 95.2994 42.4606C95.5037 42.4982 95.9806 42.58 96.352 42.6491C96.7297 42.7181 97.2685 42.8123 97.5596 42.8626C98.4575 43.0259 99.343 43.2018 100.563 43.4593C102.476 43.8613 102.712 43.9241 102.743 44.0058C102.829 44.2382 100.427 51.0533 99.2315 53.9614C99.0581 54.3886 98.8104 54.9852 98.6865 55.2867C98.5441 55.6448 98.4265 55.8394 98.3646 55.8394C98.3088 55.8394 98.1789 55.6635 98.055 55.4123C97.9374 55.18 97.7825 54.891 97.7082 54.7717C97.6401 54.6524 97.4729 54.3383 97.3428 54.0808C97.2066 53.8233 97.0394 53.5092 96.9712 53.3898C96.8969 53.2705 96.6989 52.8999 96.5254 52.5733C96.352 52.2467 96.1105 51.7944 95.9867 51.5809C95.8628 51.361 95.7637 51.1726 95.7637 51.16C95.7637 51.1475 95.6523 50.9527 95.5161 50.7266C95.3798 50.5004 95.2684 50.2995 95.2684 50.2806C95.2684 50.2618 95.2003 50.1425 95.126 50.0106C95.0454 49.885 94.903 49.6337 94.8039 49.4641C94.2218 48.3964 91.6396 44.0309 90.7541 42.6239C90.525 42.2533 90.5125 42.1277 90.7046 41.9895C90.8966 41.8387 91.7202 41.8953 93.5035 42.1717ZM31.1087 45.5007C31.1458 45.5447 31.4431 46.4115 31.7714 47.429C32.6506 50.155 33.5052 52.5545 34.5393 55.2114C35.5053 57.6861 36.4528 59.9725 37.0225 61.2099C37.134 61.4485 37.2454 61.7123 37.2702 61.7877C37.2949 61.8694 37.4436 62.1897 37.5983 62.5101L37.8833 63.0943L37.7717 63.402C37.7161 63.5653 37.5612 63.9358 37.4311 64.2185C37.3012 64.495 37.0349 65.0916 36.8429 65.5439C36.6448 65.9898 36.4341 66.4797 36.3723 66.6242C36.3104 66.7687 36.2546 66.9006 36.2546 66.9194C36.2546 66.9383 36.1865 67.1016 36.106 67.2838C36.0193 67.4659 35.852 67.868 35.7221 68.1819C35.5982 68.4897 35.4496 68.8603 35.3877 68.9985C34.4527 71.1529 32.2915 77.1451 31.4246 79.9905C31.2449 80.5747 31.0592 81.0897 31.0096 81.1273C30.9168 81.2091 30.6753 81.1463 28.9475 80.5873C27.1023 79.9905 24.1237 78.8662 22.7365 78.238C22.6251 78.1879 22.3712 78.0747 22.1669 77.9805C21.9625 77.8864 21.6281 77.7356 21.4237 77.6477C20.4516 77.2143 17.6525 75.757 17.1077 75.3989C16.9776 75.3173 16.8599 75.2483 16.8414 75.2483C16.7795 75.2483 15.5595 74.4694 14.5812 73.8162C12.1971 72.2144 9.98636 70.2547 8.54973 68.4646C7.6704 67.3717 6.89636 66.0024 6.53719 64.9094C5.81268 62.7173 6.34523 60.6006 8.24011 58.1007C8.68596 57.5102 10.5808 55.5505 11.2372 54.9978C13.6461 52.9753 16.5503 51.1663 20.1729 49.4327C20.6126 49.2255 20.9779 49.0558 20.9903 49.0558C21.0027 49.0558 21.1884 48.9741 21.4052 48.8737C23.6468 47.8372 26.6068 46.7569 30.4956 45.551C30.9972 45.3939 31.022 45.3939 31.1087 45.5007ZM109.889 45.8525C112.88 46.7632 115.939 47.9252 118.985 49.3134C120.05 49.7971 122.639 51.1475 123.147 51.4803C123.277 51.562 123.394 51.6311 123.407 51.6311C123.475 51.6311 124.893 52.523 125.71 53.0758C130.02 56.0028 132.775 59.225 133.327 61.9887C133.476 62.7488 133.426 63.8479 133.203 64.6017C132.714 66.2662 131.736 67.7737 129.983 69.5889C128.491 71.1278 127.116 72.2647 125.246 73.5209C124.49 74.0234 122.726 75.1227 122.664 75.1227C122.651 75.1227 122.521 75.198 122.385 75.2859C122.088 75.4744 119.375 76.8688 118.645 77.208C116.539 78.1816 115.419 78.6463 113.072 79.5131C111.858 79.9654 109.22 80.8385 109.077 80.8385C108.885 80.8385 108.786 80.6312 108.365 79.3309C107.913 77.9491 107.09 75.6 106.588 74.2747C105.604 71.668 104.186 68.2071 103.467 66.6556C103.349 66.4044 103.257 66.1782 103.257 66.1595C103.257 66.1406 103.12 65.8328 102.947 65.4684C102.78 65.1105 102.637 64.8027 102.637 64.7838C102.637 64.7712 102.47 64.4007 102.266 63.9673C102.061 63.5339 101.894 63.1256 101.894 63.0628C101.894 63 102.006 62.711 102.136 62.4221C102.266 62.1394 102.439 61.7563 102.514 61.5867C102.588 61.4108 102.774 60.9901 102.928 60.6446C104.848 56.2917 106.848 51.0407 108.124 47.0144C108.353 46.2859 108.563 45.6577 108.601 45.6137C108.687 45.5007 108.774 45.5132 109.889 45.8525ZM98.959 71.354C99.1695 71.8564 99.3925 72.3777 99.4483 72.5159C100.173 74.2433 101.393 77.4592 102.161 79.6765C103.052 82.2392 103.089 82.4213 102.835 82.4967C102.507 82.5972 99.3987 83.2442 98.2717 83.4451C97.9682 83.5017 97.4109 83.6022 97.0332 83.6712C95.0083 84.0356 91.1504 84.5883 90.9337 84.5506C90.7912 84.5256 90.5622 84.2868 90.5622 84.1612C90.5622 84.0985 90.7912 83.6712 91.0761 83.2128C91.5467 82.4464 93.7265 78.7782 94.0113 78.2632C94.0794 78.1439 94.4077 77.5597 94.7421 76.9755C95.0764 76.3852 95.4603 75.6943 95.5965 75.4368C95.7328 75.1791 95.9124 74.8589 95.9929 74.7333C96.0733 74.6013 96.1353 74.4819 96.1353 74.4694C96.1353 74.4568 96.2344 74.2621 96.3583 74.0422C96.4821 73.8287 96.7545 73.3199 96.9589 72.9242C97.1633 72.5285 97.349 72.1705 97.3738 72.1391C97.4047 72.1014 97.5658 71.7936 97.7453 71.4482C98.4265 70.1102 98.4389 70.1102 98.959 71.354ZM41.5554 70.7698C41.6172 70.9017 41.7225 71.1089 41.7969 71.2283C41.8712 71.3477 42.094 71.7747 42.2922 72.1705C42.4966 72.5662 42.7194 72.9933 42.7939 73.1127C42.862 73.232 43.0663 73.6025 43.2334 73.9292C43.4068 74.2559 43.6484 74.708 43.7722 74.9216C43.8961 75.1414 43.9952 75.3299 43.9952 75.3425C43.9952 75.355 44.1066 75.5498 44.2429 75.7759C44.3791 76.002 44.4905 76.203 44.4905 76.2219C44.4905 76.2407 44.5587 76.36 44.6329 76.4919C44.7135 76.6176 44.8559 76.8625 44.955 77.0384C45.5743 78.1816 47.822 81.9503 49.011 83.8534C49.2587 84.2491 49.4692 84.6072 49.4879 84.6512C49.5312 84.7579 49.2339 84.7579 48.2989 84.6386C47.8902 84.582 47.3452 84.5129 47.0914 84.4816C46.0634 84.356 45.5123 84.2743 43.2211 83.9226C40.738 83.533 37.0162 82.7919 36.9358 82.66C36.8057 82.4527 38.8616 76.5045 40.4407 72.5348C41.19 70.6568 41.2395 70.5373 41.3634 70.5373C41.4128 70.5373 41.4996 70.6442 41.5554 70.7698ZM104.737 88.4889C104.836 88.6774 105.263 90.5994 105.554 92.1446C106.217 95.7059 106.545 98.5576 106.669 101.943C106.768 104.619 106.594 107.615 106.223 109.826C105.721 112.766 104.891 115.146 103.758 116.867C103.288 117.571 102.247 118.645 101.678 118.99C100.65 119.618 99.6527 119.863 98.0859 119.863C96.4821 119.87 94.9959 119.599 93.0391 118.965C92.5746 118.814 91.33 118.343 91.0265 118.211C90.8903 118.149 90.5683 118.004 90.3145 117.891C89.6828 117.608 87.2306 116.346 87.0263 116.195C86.9334 116.132 86.8404 116.076 86.8219 116.076C86.7723 116.076 85.1747 115.09 84.4316 114.606C83.5152 114.003 82.2952 113.13 81.4345 112.47C81.032 112.156 80.6233 111.842 80.5366 111.773C80.1527 111.484 78.555 110.178 78.264 109.92C78.0844 109.763 77.6695 109.399 77.3352 109.104C77.0008 108.809 76.4991 108.356 76.2266 108.099C75.948 107.841 75.4092 107.339 75.0315 106.981C74.6476 106.623 74.338 106.29 74.338 106.239C74.338 106.189 74.5238 105.938 74.7591 105.687C74.9882 105.442 75.4092 104.958 75.7003 104.619C75.9913 104.28 76.3382 103.872 76.4806 103.708C77.1555 102.942 79.6325 99.8641 80.5861 98.6142C81.1807 97.8353 83.0755 95.2726 83.4718 94.7199C84.1282 93.8028 85.1005 92.4146 85.5153 91.8116C85.7197 91.5101 85.9426 91.2526 86.0107 91.2337C86.0788 91.2213 86.4813 91.1773 86.9086 91.1396C87.8622 91.0579 88.4195 90.9951 89.881 90.8256C91.8997 90.5931 92.0112 90.5743 92.4694 90.5115C92.7109 90.4801 93.1011 90.4235 93.3364 90.3922C93.937 90.3105 95.0517 90.1408 95.4851 90.0718C95.6894 90.0404 96.3893 89.9273 97.0332 89.8206C98.5999 89.5631 100.346 89.2427 101.492 89.0039C102.966 88.69 103.387 88.602 103.814 88.5015C104.439 88.3507 104.662 88.3507 104.737 88.4889ZM36.8429 88.9035C38.4777 89.2553 40.1992 89.5692 43.283 90.0718C43.7227 90.1471 44.825 90.3042 45.4813 90.3922C47.7911 90.6999 48.3608 90.7627 50.7449 91.0202C51.4447 91.0957 52.454 91.1836 53.098 91.2337C54.0021 91.3029 53.8782 91.2213 54.6833 92.3519C55.4016 93.3568 56.6711 95.0779 57.7237 96.4786C58.021 96.8743 58.7703 97.8354 59.3833 98.6016C60.8818 100.492 60.7704 100.354 61.6436 101.397C62.0708 101.912 62.5228 102.458 62.6591 102.622C62.7891 102.785 63.0245 103.061 63.1854 103.237C63.3403 103.413 63.749 103.878 64.0896 104.267C64.4302 104.663 64.9503 105.241 65.2538 105.567C65.5509 105.888 65.7924 106.189 65.7924 106.233C65.7924 106.327 64.5974 107.54 63.8852 108.168C61.8045 110.008 60.9438 110.731 59.1665 112.081C58.0396 112.935 55.1601 114.945 55.0548 114.945C55.0362 114.945 54.8318 115.071 54.6028 115.222C54.3737 115.372 54.0579 115.561 53.903 115.649C53.7482 115.737 53.4696 115.894 53.2838 116C49.9274 117.91 46.7941 119.128 43.9456 119.625C43.1778 119.763 42.8681 119.782 41.6668 119.782C39.8524 119.782 39.3508 119.681 38.1804 119.11C37.4126 118.733 36.8677 118.262 36.2298 117.426C34.7684 115.523 33.8581 112.847 33.3318 108.89C33.2265 108.086 33.2017 107.489 33.177 104.99C33.1398 101.918 33.177 101.014 33.4122 98.8025C33.6229 96.7738 33.9758 94.4309 34.3659 92.4901C34.8304 90.1723 35.171 88.7527 35.2763 88.6774C35.3815 88.6082 35.5672 88.6334 36.8429 88.9035ZM66.0464 91.8996C69.477 91.9624 74.9882 91.9059 77.5457 91.7866C77.8553 91.774 78.1153 91.7803 78.1153 91.8116C78.1153 91.8682 76.3257 94.2865 75.7313 95.034C75.5269 95.2915 75.205 95.7059 75.0191 95.951C74.8334 96.1959 74.5238 96.5916 74.3256 96.8304C74.1336 97.069 73.7745 97.5213 73.5205 97.8354C73.0871 98.3817 72.8085 98.7146 72.1396 99.4936C71.9724 99.6945 71.6072 100.115 71.3347 100.442C70.5296 101.384 70.1767 101.755 70.0652 101.755C69.9538 101.755 69.3779 101.158 68.4242 100.065C67.2972 98.7586 67.1919 98.633 66.7522 98.1116C66.517 97.8228 66.2074 97.4584 66.0649 97.3014C65.9286 97.1443 65.5757 96.7172 65.2909 96.3592C65.0061 96.0011 64.5539 95.4358 64.2878 95.103C64.0153 94.7701 63.5941 94.2299 63.3464 93.9032C61.7674 91.8368 61.7983 91.8808 61.9717 91.8053C62.0089 91.7866 62.1018 91.7866 62.1699 91.8053C62.238 91.8179 63.9843 91.8619 66.0464 91.8996Z"/>
</mask>
<path d="M96.5378 0.414547C95.9806 0.464796 95.1941 0.59042 94.4633 0.734887C94.0361 0.822823 93.6212 0.910759 93.5345 0.923321C92.9029 1.05523 90.9709 1.65194 90.0049 2.02252C88.2461 2.68833 85.7197 3.90059 84.122 4.84276C83.6948 5.09401 83.2674 5.34526 83.1622 5.40179C81.9052 6.12412 78.8523 8.22202 77.3352 9.40917C76.1957 10.3011 75.3349 10.992 75.0811 11.2119C74.9201 11.35 74.5733 11.6453 74.307 11.8714C74.0408 12.0975 73.6506 12.4367 73.4401 12.6251C73.2296 12.8136 72.7217 13.2659 72.3193 13.6301C71.9168 13.9944 71.2789 14.5848 70.9012 14.9491C70.5296 15.3135 70.1457 15.6777 70.0528 15.7595L69.8857 15.9101L69.1054 15.1627C68.6781 14.7544 68.1517 14.2582 67.9351 14.0698C67.7184 13.8813 67.2539 13.4668 66.9071 13.159C66.5603 12.845 66.1455 12.4807 65.9783 12.3425C64.9874 11.5071 64.7336 11.2935 64.2506 10.9104C61.2596 8.50467 57.7733 6.11784 55.4511 4.88045C55.1972 4.74226 54.8628 4.55382 54.7081 4.4659C54.5532 4.37167 54.0825 4.12671 53.6553 3.91315C50.6458 2.40567 47.8715 1.40697 45.2337 0.879353C43.7845 0.59042 43.153 0.533889 41.3943 0.533889C39.71 0.533889 39.6109 0.540171 38.3909 0.791417C37.0534 1.06151 35.5549 1.65821 34.4836 2.35543C33.0779 3.2662 31.7714 4.60408 30.7805 6.14296C30.4461 6.67058 29.9508 7.52481 29.8021 7.85144C28.3779 10.9229 27.6162 14.1074 27.2632 18.4351C27.1641 19.6915 27.1641 24.6661 27.2632 25.6585C27.3003 26.0354 27.3623 26.7137 27.3994 27.166C27.6596 30.3066 28.415 34.9107 29.2325 38.334C29.3562 38.8427 29.4368 39.3263 29.4182 39.408C29.381 39.5649 29.3749 39.5649 27.511 40.1365C24.6128 41.0159 20.4639 42.5862 18.3709 43.5975C18.086 43.7294 17.8384 43.8425 17.8136 43.8425C17.7516 43.8425 14.7732 45.3499 14.5192 45.507C14.4016 45.5824 14.123 45.7393 13.9 45.8649C11.9122 46.9517 9.44763 48.6413 7.45367 50.2869C6.50623 51.072 4.71043 52.8684 3.99211 53.7541C2.35112 55.783 1.27363 57.7364 0.722509 59.6836C0.332387 61.0528 0.307617 61.2663 0.307617 63C0.307617 64.8027 0.381926 65.3304 0.809203 66.6745C1.41606 68.5526 2.37589 70.3238 3.74442 72.1077C4.84047 73.5335 6.54339 75.2357 8.35157 76.718C9.76345 77.8738 12.1042 79.5068 13.4356 80.2732C13.5409 80.3298 13.9681 80.581 14.3954 80.8322C15.1571 81.2782 18.5814 83.0432 19.0707 83.2379C19.2069 83.2944 19.4979 83.4263 19.7209 83.5269C21.8573 84.5256 25.6656 85.945 28.4398 86.7804C28.9723 86.9375 29.4182 87.0756 29.4243 87.0819C29.4305 87.0882 29.3997 87.2453 29.3501 87.4336C29.0714 88.4889 28.4335 91.5604 28.1426 93.2438C27.9692 94.2173 27.9259 94.5188 27.74 95.8818C27.5233 97.4521 27.48 97.8478 27.3994 98.7084C27.3623 99.1229 27.3003 99.7574 27.257 100.122C27.1517 101.058 27.1579 107.238 27.2632 108.287C27.5728 111.365 27.9505 113.318 28.6379 115.485C29.6597 118.708 31.2759 121.358 33.2575 123.048C34.6199 124.21 36.1122 124.982 37.9266 125.46C39.227 125.799 39.6667 125.843 41.704 125.843C43.4997 125.843 43.6731 125.83 45.0788 125.585C47.2214 125.221 50.1133 124.304 52.1692 123.349C52.392 123.249 52.6832 123.117 52.8194 123.06C53.1413 122.929 55.4326 121.754 55.9341 121.459C56.1509 121.327 56.3366 121.226 56.349 121.226C56.4605 121.226 59.631 119.21 60.6961 118.463C61.8541 117.646 64.6283 115.536 65.1795 115.046C65.3032 114.939 65.6067 114.681 65.8543 114.474C66.102 114.267 66.4674 113.953 66.6656 113.783C66.8575 113.607 67.291 113.23 67.6254 112.935C67.9599 112.64 68.6286 112.012 69.1178 111.534C69.6008 111.063 70.0343 110.674 70.0776 110.674C70.1147 110.674 70.3625 110.881 70.6225 111.133C71.409 111.892 72.4802 112.891 72.7899 113.155C72.9571 113.293 73.3658 113.651 73.7002 113.946C74.9387 115.046 76.2824 116.151 77.589 117.15C79.3724 118.513 81.7503 120.133 83.348 121.069C84.766 121.898 86.6299 122.891 87.404 123.23C87.5897 123.312 87.887 123.444 88.0542 123.519C90.6178 124.706 93.8069 125.604 96.3706 125.874C97.1756 125.956 99.3925 125.956 99.8446 125.874C101.764 125.529 102.811 125.221 103.894 124.687C106.935 123.192 109.331 120.177 110.818 115.982C111.672 113.576 112.291 110.498 112.551 107.376C112.644 106.183 112.694 101.145 112.62 100.341C112.582 99.9583 112.52 99.2422 112.483 98.7398C112.26 95.7562 111.629 91.6421 110.904 88.4701C110.526 86.8056 110.539 86.8684 110.632 86.7804C110.681 86.7302 111.319 86.5041 112.05 86.2717C112.781 86.0393 113.524 85.7943 113.691 85.7315C113.864 85.6687 114.446 85.4614 114.991 85.2667C116.44 84.7454 118.725 83.8346 119.666 83.4011C119.889 83.2944 120.18 83.1688 120.317 83.1123C120.453 83.0557 120.812 82.8924 121.109 82.7417C121.407 82.5909 121.667 82.4716 121.691 82.4716C121.747 82.4716 123.884 81.3975 124.125 81.2468C124.243 81.1713 124.552 81.0017 124.806 80.8698C125.06 80.7316 125.444 80.5181 125.661 80.3862C125.871 80.2543 126.063 80.1476 126.076 80.1476C126.094 80.1476 126.212 80.0784 126.342 79.9968C126.466 79.9151 126.881 79.6576 127.252 79.4252C128.794 78.4579 130.516 77.233 131.624 76.316C132.559 75.5435 132.844 75.2796 133.873 74.2559C135.482 72.6354 136.473 71.3979 137.359 69.9093C139.792 65.8014 140.065 61.75 138.17 57.7427C137.215 55.7201 136.176 54.3006 134.126 52.2278C132.8 50.8837 132.342 50.4817 130.757 49.2568C130.119 48.7606 127.779 47.1715 127.066 46.7506C125.617 45.8901 124.905 45.5007 123.382 44.7281C121.63 43.8425 121.518 43.7859 119.945 43.1075C119.437 42.8877 118.961 42.6804 118.892 42.6491C118.688 42.5485 117.375 42.0398 115.889 41.487C114.644 41.0285 113.846 40.7521 111.226 39.9105C110.415 39.6529 110.279 39.5399 110.328 39.1818C110.347 39.0688 110.489 38.3779 110.65 37.6555C111.468 33.9371 111.963 30.6144 112.236 27.1032C112.273 26.6195 112.329 25.8972 112.359 25.4889C112.44 24.5342 112.44 20.2568 112.359 19.4087C112.329 19.0444 112.273 18.3975 112.236 17.9641C112.025 15.4894 111.604 13.2783 110.935 11.0611C109.901 7.63788 108.074 4.69202 105.901 2.92701C104.346 1.67077 102.631 0.910759 100.445 0.527609C99.9127 0.433391 97.1881 0.351736 96.5378 0.414547ZM99.8507 6.58892C101.851 7.04117 103.189 8.25343 104.346 10.6466C105.647 13.3412 106.272 16.5446 106.452 21.3873C106.489 22.499 106.409 25.1435 106.291 26.4436C106.26 26.808 106.198 27.4423 106.161 27.8569C106.043 29.2011 105.82 30.8845 105.542 32.5364C105.368 33.5666 105.312 33.8805 104.984 35.5513C104.811 36.4244 104.446 38.0073 104.408 38.0449C104.39 38.0638 104.229 38.0449 104.049 38.001C103.696 37.9256 102.365 37.6366 101.399 37.4294C100.582 37.2535 97.8568 36.7385 97.1261 36.6192C96.9404 36.5877 96.2592 36.4747 95.609 36.3741C92.8596 35.922 89.6023 35.4948 86.4937 35.187C86.1779 35.1556 85.8744 35.0929 85.825 35.0489C85.7692 35.0049 85.5401 34.6971 85.3048 34.3642C84.5059 33.2148 82.896 30.985 82.4005 30.3379C82.3076 30.2186 82.0104 29.8229 81.738 29.4586C80.9453 28.3971 78.4621 25.2817 77.651 24.3207C76.3009 22.7315 75.9295 22.2981 74.8829 21.1109C74.5113 20.6964 74.2142 20.3195 74.2142 20.2692C74.2142 20.0996 76.7654 17.694 78.3631 16.3624C78.6108 16.1551 78.9328 15.8851 79.0752 15.7656C79.2176 15.6463 79.4963 15.4202 79.6944 15.2632C79.8926 15.1061 80.1403 14.9052 80.2455 14.8172C80.6419 14.4781 82.4501 13.1277 83.317 12.5246C84.1839 11.9153 86.4937 10.4267 86.568 10.4267C86.5866 10.4267 86.7042 10.3576 86.8343 10.276C87.3854 9.91166 89.3484 8.88783 90.3145 8.45443C92.3889 7.52481 94.2776 6.91555 96.0487 6.60148C97.0208 6.43189 99.1077 6.42562 99.8507 6.58892ZM43.6856 6.74595C46.0015 7.1982 48.2556 8.00218 50.8563 9.30867C55.03 11.4129 59.0179 14.2143 63.5075 18.2091C64.1825 18.8058 65.6067 20.2316 65.6067 20.307C65.6067 20.3384 65.3094 20.6901 64.9441 21.0859C64.5726 21.4816 64.1019 22.0092 63.8852 22.2541C63.6747 22.5053 63.2969 22.9387 63.0493 23.2277C61.7054 24.7854 60.8695 25.7967 59.2409 27.8569C57.8724 29.5843 55.6121 32.6054 54.4912 34.2135C53.8968 35.0677 53.8597 35.1053 53.6243 35.1368C53.4881 35.1556 52.9184 35.2122 52.3549 35.2687C51.3827 35.3628 50.943 35.4131 49.011 35.6456C48.0822 35.7586 45.7167 36.0852 45.1407 36.1795C44.9364 36.2108 44.3914 36.2988 43.9332 36.3741C42.893 36.5375 41.8835 36.7134 40.2983 37.0023C40.1187 37.0337 39.8214 37.0839 39.6481 37.1153C39.035 37.2284 37.4684 37.555 35.9759 37.888C35.4187 38.0073 35.3134 37.9947 35.2514 37.7811C35.1524 37.4043 34.5764 34.7725 34.3969 33.868C34.143 32.549 33.7776 30.3505 33.6537 29.333C33.2389 25.9852 33.1336 24.1511 33.177 21.1989C33.2142 18.3472 33.3441 16.9843 33.7838 14.8549C34.3907 11.8965 35.3196 9.82372 36.6571 8.42302C37.6541 7.37407 38.2857 7.01605 39.6481 6.71455C40.1126 6.61405 40.3849 6.60148 41.673 6.62033C42.6948 6.63918 43.3263 6.67686 43.6856 6.74595ZM70.5421 25.3067C70.8083 25.6145 71.3285 26.2175 71.6938 26.6447C72.0654 27.0718 72.5112 27.5868 72.6908 27.7941C73.3472 28.5541 75.9047 31.7262 76.4125 32.4171C76.4806 32.5113 76.7593 32.8755 77.0317 33.2336C77.6014 33.981 77.8677 34.3642 77.8677 34.4458C77.8677 34.4836 76.9883 34.4836 75.657 34.4458C72.8208 34.3705 67.2352 34.3705 64.232 34.4458C61.9469 34.5024 61.8913 34.5024 61.8913 34.3831C61.8913 34.3139 61.9965 34.1319 62.1266 33.9684C62.2504 33.8052 62.6777 33.2588 63.0678 32.7499C63.4579 32.2412 63.879 31.7073 63.9966 31.5628C64.1144 31.4121 64.3559 31.1169 64.5229 30.9032C65.2537 29.9737 66.3002 28.7049 67 27.8883C67.1734 27.6936 67.5635 27.2351 67.8669 26.877C68.7029 25.8972 69.8299 24.7477 69.9538 24.7477C70.0095 24.7477 70.2758 24.999 70.5421 25.3067ZM76.7841 40.5762C77.5332 40.6077 78.5798 40.6642 79.1061 40.6957C79.6324 40.7333 80.5676 40.7898 81.1807 40.8276C81.7936 40.8652 82.351 40.9092 82.4192 40.9217C82.5306 40.9469 83.8867 42.9756 85.1499 45.0045C85.342 45.3122 85.732 45.9341 86.0107 46.3864C86.4998 47.1777 88.5867 50.6826 88.9025 51.2542C88.9893 51.4113 89.3732 52.0833 89.7509 52.7491C90.1286 53.415 90.4383 53.9677 90.4383 53.9803C90.4383 53.9929 90.5497 54.1938 90.6859 54.4199C90.8222 54.6461 90.9337 54.847 90.9337 54.8659C90.9337 54.8847 91.0019 55.0041 91.0761 55.136C91.1566 55.2617 91.33 55.5819 91.46 55.8394C91.5963 56.0971 91.7635 56.411 91.8316 56.5304C91.9059 56.6498 92.1412 57.0894 92.3518 57.5039C92.5685 57.9185 92.7605 58.2829 92.7914 58.3206C92.8348 58.377 93.4354 59.5579 94.643 61.9635C94.872 62.4095 95.0888 62.8555 95.126 62.9498C95.1941 63.1067 95.1074 63.3078 93.9556 65.6192C93.2744 66.9948 92.6924 68.1442 92.6675 68.1819C92.6366 68.2134 92.4137 68.6405 92.166 69.1241C91.9182 69.6078 91.6582 70.1039 91.5839 70.2234C91.5158 70.3427 91.3486 70.6568 91.2124 70.9143C91.0823 71.1718 90.9089 71.4922 90.8285 71.6178C90.7541 71.7497 90.6859 71.869 90.6859 71.8816C90.6859 71.8941 90.4754 72.2836 90.2154 72.7484C89.9553 73.2068 89.6828 73.6968 89.6085 73.835C89.3484 74.306 88.5372 75.7193 88.1843 76.3098C87.9923 76.6301 87.8374 76.9128 87.8374 76.9253C87.8374 76.9379 87.757 77.0761 87.6517 77.2269C87.5526 77.3775 87.466 77.5157 87.466 77.5408C87.466 77.566 87.3854 77.7042 87.2801 77.8549C87.181 78.0057 87.0944 78.1439 87.0944 78.1627C87.0944 78.1879 87.0015 78.3512 86.8839 78.5333C86.7723 78.7092 86.308 79.4691 85.8559 80.2103C84.8528 81.8498 84.2707 82.7794 83.3046 84.2743L82.5616 85.4112L82.1219 85.4489C76.0533 85.9262 66.0216 85.9953 59.693 85.6122C59.117 85.5745 58.3429 85.5305 57.9715 85.5053C57.6061 85.4866 57.2655 85.4363 57.2222 85.3986C57.1416 85.3358 54.7266 81.655 53.9959 80.4867C53.3024 79.3687 51.2217 75.9015 50.8501 75.242C50.7697 75.0912 50.4477 74.5259 50.1442 73.9921C49.8408 73.4582 49.4879 72.8363 49.3701 72.6101C49.2464 72.384 49.0482 72.0198 48.9243 71.8061C48.8005 71.5864 48.7014 71.3916 48.7014 71.379C48.7014 71.3666 48.6333 71.2471 48.559 71.1152C48.4784 70.9896 48.2802 70.6253 48.1132 70.3176C47.9521 70.0035 47.6858 69.4947 47.5186 69.1869C46.2553 66.7875 44.5525 63.3329 44.5525 63.1822C44.5525 63.0754 46.5216 59.0428 47.2833 57.5982C48.528 55.224 48.6704 54.9602 49.0544 54.2754C49.2401 53.9552 49.4879 53.5029 49.6116 53.2705C50.0327 52.4916 51.4199 50.0733 52.1196 48.8988C54.1941 45.4316 56.8629 41.2547 57.1602 41.0222C57.3088 40.9029 57.2778 40.9092 59.4761 40.7584C60.7209 40.6768 63.0988 40.5699 65.0184 40.5135C67.0928 40.4506 75.0191 40.4883 76.7841 40.5762ZM49.0977 41.8074C49.302 41.889 49.1844 42.178 48.4909 43.296C48.1069 43.9241 47.6363 44.6904 47.4505 45.0045C47.2586 45.3122 46.9675 45.8022 46.7879 46.0911C46.6145 46.3801 46.4721 46.625 46.4721 46.6376C46.4721 46.6501 46.1935 47.1337 45.8529 47.7053C45.5123 48.2832 45.2337 48.7669 45.2337 48.7795C45.2337 48.7921 45.1469 48.9491 45.0416 49.1312C44.9302 49.3134 44.763 49.6212 44.6577 49.8095C44.5525 49.998 44.4224 50.2304 44.3543 50.3246C44.2923 50.4125 44.2429 50.5004 44.2429 50.5193C44.2429 50.5382 44.1438 50.7329 44.0199 50.9527C43.8961 51.1663 43.6546 51.6186 43.4812 51.9451C43.3078 52.2718 43.1096 52.6424 43.0354 52.7617C42.9609 52.881 42.7814 53.2202 42.639 53.5155C42.4904 53.8107 42.2984 54.1749 42.2118 54.3257C42.125 54.4765 41.9268 54.8533 41.7659 55.1737C41.4128 55.8583 41.3139 55.896 41.0971 55.4375C40.6945 54.5706 39.1403 50.4943 38.36 48.2393C37.7903 46.6061 37.0597 44.3449 37.0597 44.213C37.0597 44.0874 37.2887 43.8676 37.5055 43.7859C38.1929 43.5221 44.4657 42.3789 47.5248 41.9645C47.8159 41.9205 48.206 41.8639 48.3918 41.8387C48.8438 41.7697 48.9801 41.7634 49.0977 41.8074ZM93.5035 42.1717C94.2899 42.2973 95.095 42.4229 95.2994 42.4606C95.5037 42.4982 95.9806 42.58 96.352 42.6491C96.7297 42.7181 97.2685 42.8123 97.5596 42.8626C98.4575 43.0259 99.343 43.2018 100.563 43.4593C102.476 43.8613 102.712 43.9241 102.743 44.0058C102.829 44.2382 100.427 51.0533 99.2315 53.9614C99.0581 54.3886 98.8104 54.9852 98.6865 55.2867C98.5441 55.6448 98.4265 55.8394 98.3646 55.8394C98.3088 55.8394 98.1789 55.6635 98.055 55.4123C97.9374 55.18 97.7825 54.891 97.7082 54.7717C97.6401 54.6524 97.4729 54.3383 97.3428 54.0808C97.2066 53.8233 97.0394 53.5092 96.9712 53.3898C96.8969 53.2705 96.6989 52.8999 96.5254 52.5733C96.352 52.2467 96.1105 51.7944 95.9867 51.5809C95.8628 51.361 95.7637 51.1726 95.7637 51.16C95.7637 51.1475 95.6523 50.9527 95.5161 50.7266C95.3798 50.5004 95.2684 50.2995 95.2684 50.2806C95.2684 50.2618 95.2003 50.1425 95.126 50.0106C95.0454 49.885 94.903 49.6337 94.8039 49.4641C94.2218 48.3964 91.6396 44.0309 90.7541 42.6239C90.525 42.2533 90.5125 42.1277 90.7046 41.9895C90.8966 41.8387 91.7202 41.8953 93.5035 42.1717ZM31.1087 45.5007C31.1458 45.5447 31.4431 46.4115 31.7714 47.429C32.6506 50.155 33.5052 52.5545 34.5393 55.2114C35.5053 57.6861 36.4528 59.9725 37.0225 61.2099C37.134 61.4485 37.2454 61.7123 37.2702 61.7877C37.2949 61.8694 37.4436 62.1897 37.5983 62.5101L37.8833 63.0943L37.7717 63.402C37.7161 63.5653 37.5612 63.9358 37.4311 64.2185C37.3012 64.495 37.0349 65.0916 36.8429 65.5439C36.6448 65.9898 36.4341 66.4797 36.3723 66.6242C36.3104 66.7687 36.2546 66.9006 36.2546 66.9194C36.2546 66.9383 36.1865 67.1016 36.106 67.2838C36.0193 67.4659 35.852 67.868 35.7221 68.1819C35.5982 68.4897 35.4496 68.8603 35.3877 68.9985C34.4527 71.1529 32.2915 77.1451 31.4246 79.9905C31.2449 80.5747 31.0592 81.0897 31.0096 81.1273C30.9168 81.2091 30.6753 81.1463 28.9475 80.5873C27.1023 79.9905 24.1237 78.8662 22.7365 78.238C22.6251 78.1879 22.3712 78.0747 22.1669 77.9805C21.9625 77.8864 21.6281 77.7356 21.4237 77.6477C20.4516 77.2143 17.6525 75.757 17.1077 75.3989C16.9776 75.3173 16.8599 75.2483 16.8414 75.2483C16.7795 75.2483 15.5595 74.4694 14.5812 73.8162C12.1971 72.2144 9.98636 70.2547 8.54973 68.4646C7.6704 67.3717 6.89636 66.0024 6.53719 64.9094C5.81268 62.7173 6.34523 60.6006 8.24011 58.1007C8.68596 57.5102 10.5808 55.5505 11.2372 54.9978C13.6461 52.9753 16.5503 51.1663 20.1729 49.4327C20.6126 49.2255 20.9779 49.0558 20.9903 49.0558C21.0027 49.0558 21.1884 48.9741 21.4052 48.8737C23.6468 47.8372 26.6068 46.7569 30.4956 45.551C30.9972 45.3939 31.022 45.3939 31.1087 45.5007ZM109.889 45.8525C112.88 46.7632 115.939 47.9252 118.985 49.3134C120.05 49.7971 122.639 51.1475 123.147 51.4803C123.277 51.562 123.394 51.6311 123.407 51.6311C123.475 51.6311 124.893 52.523 125.71 53.0758C130.02 56.0028 132.775 59.225 133.327 61.9887C133.476 62.7488 133.426 63.8479 133.203 64.6017C132.714 66.2662 131.736 67.7737 129.983 69.5889C128.491 71.1278 127.116 72.2647 125.246 73.5209C124.49 74.0234 122.726 75.1227 122.664 75.1227C122.651 75.1227 122.521 75.198 122.385 75.2859C122.088 75.4744 119.375 76.8688 118.645 77.208C116.539 78.1816 115.419 78.6463 113.072 79.5131C111.858 79.9654 109.22 80.8385 109.077 80.8385C108.885 80.8385 108.786 80.6312 108.365 79.3309C107.913 77.9491 107.09 75.6 106.588 74.2747C105.604 71.668 104.186 68.2071 103.467 66.6556C103.349 66.4044 103.257 66.1782 103.257 66.1595C103.257 66.1406 103.12 65.8328 102.947 65.4684C102.78 65.1105 102.637 64.8027 102.637 64.7838C102.637 64.7712 102.47 64.4007 102.266 63.9673C102.061 63.5339 101.894 63.1256 101.894 63.0628C101.894 63 102.006 62.711 102.136 62.4221C102.266 62.1394 102.439 61.7563 102.514 61.5867C102.588 61.4108 102.774 60.9901 102.928 60.6446C104.848 56.2917 106.848 51.0407 108.124 47.0144C108.353 46.2859 108.563 45.6577 108.601 45.6137C108.687 45.5007 108.774 45.5132 109.889 45.8525ZM98.959 71.354C99.1695 71.8564 99.3925 72.3777 99.4483 72.5159C100.173 74.2433 101.393 77.4592 102.161 79.6765C103.052 82.2392 103.089 82.4213 102.835 82.4967C102.507 82.5972 99.3987 83.2442 98.2717 83.4451C97.9682 83.5017 97.4109 83.6022 97.0332 83.6712C95.0083 84.0356 91.1504 84.5883 90.9337 84.5506C90.7912 84.5256 90.5622 84.2868 90.5622 84.1612C90.5622 84.0985 90.7912 83.6712 91.0761 83.2128C91.5467 82.4464 93.7265 78.7782 94.0113 78.2632C94.0794 78.1439 94.4077 77.5597 94.7421 76.9755C95.0764 76.3852 95.4603 75.6943 95.5965 75.4368C95.7328 75.1791 95.9124 74.8589 95.9929 74.7333C96.0733 74.6013 96.1353 74.4819 96.1353 74.4694C96.1353 74.4568 96.2344 74.2621 96.3583 74.0422C96.4821 73.8287 96.7545 73.3199 96.9589 72.9242C97.1633 72.5285 97.349 72.1705 97.3738 72.1391C97.4047 72.1014 97.5658 71.7936 97.7453 71.4482C98.4265 70.1102 98.4389 70.1102 98.959 71.354ZM41.5554 70.7698C41.6172 70.9017 41.7225 71.1089 41.7969 71.2283C41.8712 71.3477 42.094 71.7747 42.2922 72.1705C42.4966 72.5662 42.7194 72.9933 42.7939 73.1127C42.862 73.232 43.0663 73.6025 43.2334 73.9292C43.4068 74.2559 43.6484 74.708 43.7722 74.9216C43.8961 75.1414 43.9952 75.3299 43.9952 75.3425C43.9952 75.355 44.1066 75.5498 44.2429 75.7759C44.3791 76.002 44.4905 76.203 44.4905 76.2219C44.4905 76.2407 44.5587 76.36 44.6329 76.4919C44.7135 76.6176 44.8559 76.8625 44.955 77.0384C45.5743 78.1816 47.822 81.9503 49.011 83.8534C49.2587 84.2491 49.4692 84.6072 49.4879 84.6512C49.5312 84.7579 49.2339 84.7579 48.2989 84.6386C47.8902 84.582 47.3452 84.5129 47.0914 84.4816C46.0634 84.356 45.5123 84.2743 43.2211 83.9226C40.738 83.533 37.0162 82.7919 36.9358 82.66C36.8057 82.4527 38.8616 76.5045 40.4407 72.5348C41.19 70.6568 41.2395 70.5373 41.3634 70.5373C41.4128 70.5373 41.4996 70.6442 41.5554 70.7698ZM104.737 88.4889C104.836 88.6774 105.263 90.5994 105.554 92.1446C106.217 95.7059 106.545 98.5576 106.669 101.943C106.768 104.619 106.594 107.615 106.223 109.826C105.721 112.766 104.891 115.146 103.758 116.867C103.288 117.571 102.247 118.645 101.678 118.99C100.65 119.618 99.6527 119.863 98.0859 119.863C96.4821 119.87 94.9959 119.599 93.0391 118.965C92.5746 118.814 91.33 118.343 91.0265 118.211C90.8903 118.149 90.5683 118.004 90.3145 117.891C89.6828 117.608 87.2306 116.346 87.0263 116.195C86.9334 116.132 86.8404 116.076 86.8219 116.076C86.7723 116.076 85.1747 115.09 84.4316 114.606C83.5152 114.003 82.2952 113.13 81.4345 112.47C81.032 112.156 80.6233 111.842 80.5366 111.773C80.1527 111.484 78.555 110.178 78.264 109.92C78.0844 109.763 77.6695 109.399 77.3352 109.104C77.0008 108.809 76.4991 108.356 76.2266 108.099C75.948 107.841 75.4092 107.339 75.0315 106.981C74.6476 106.623 74.338 106.29 74.338 106.239C74.338 106.189 74.5238 105.938 74.7591 105.687C74.9882 105.442 75.4092 104.958 75.7003 104.619C75.9913 104.28 76.3382 103.872 76.4806 103.708C77.1555 102.942 79.6325 99.8641 80.5861 98.6142C81.1807 97.8353 83.0755 95.2726 83.4718 94.7199C84.1282 93.8028 85.1005 92.4146 85.5153 91.8116C85.7197 91.5101 85.9426 91.2526 86.0107 91.2337C86.0788 91.2213 86.4813 91.1773 86.9086 91.1396C87.8622 91.0579 88.4195 90.9951 89.881 90.8256C91.8997 90.5931 92.0112 90.5743 92.4694 90.5115C92.7109 90.4801 93.1011 90.4235 93.3364 90.3922C93.937 90.3105 95.0517 90.1408 95.4851 90.0718C95.6894 90.0404 96.3893 89.9273 97.0332 89.8206C98.5999 89.5631 100.346 89.2427 101.492 89.0039C102.966 88.69 103.387 88.602 103.814 88.5015C104.439 88.3507 104.662 88.3507 104.737 88.4889ZM36.8429 88.9035C38.4777 89.2553 40.1992 89.5692 43.283 90.0718C43.7227 90.1471 44.825 90.3042 45.4813 90.3922C47.7911 90.6999 48.3608 90.7627 50.7449 91.0202C51.4447 91.0957 52.454 91.1836 53.098 91.2337C54.0021 91.3029 53.8782 91.2213 54.6833 92.3519C55.4016 93.3568 56.6711 95.0779 57.7237 96.4786C58.021 96.8743 58.7703 97.8354 59.3833 98.6016C60.8818 100.492 60.7704 100.354 61.6436 101.397C62.0708 101.912 62.5228 102.458 62.6591 102.622C62.7891 102.785 63.0245 103.061 63.1854 103.237C63.3403 103.413 63.749 103.878 64.0896 104.267C64.4302 104.663 64.9503 105.241 65.2538 105.567C65.5509 105.888 65.7924 106.189 65.7924 106.233C65.7924 106.327 64.5974 107.54 63.8852 108.168C61.8045 110.008 60.9438 110.731 59.1665 112.081C58.0396 112.935 55.1601 114.945 55.0548 114.945C55.0362 114.945 54.8318 115.071 54.6028 115.222C54.3737 115.372 54.0579 115.561 53.903 115.649C53.7482 115.737 53.4696 115.894 53.2838 116C49.9274 117.91 46.7941 119.128 43.9456 119.625C43.1778 119.763 42.8681 119.782 41.6668 119.782C39.8524 119.782 39.3508 119.681 38.1804 119.11C37.4126 118.733 36.8677 118.262 36.2298 117.426C34.7684 115.523 33.8581 112.847 33.3318 108.89C33.2265 108.086 33.2017 107.489 33.177 104.99C33.1398 101.918 33.177 101.014 33.4122 98.8025C33.6229 96.7738 33.9758 94.4309 34.3659 92.4901C34.8304 90.1723 35.171 88.7527 35.2763 88.6774C35.3815 88.6082 35.5672 88.6334 36.8429 88.9035ZM66.0464 91.8996C69.477 91.9624 74.9882 91.9059 77.5457 91.7866C77.8553 91.774 78.1153 91.7803 78.1153 91.8116C78.1153 91.8682 76.3257 94.2865 75.7313 95.034C75.5269 95.2915 75.205 95.7059 75.0191 95.951C74.8334 96.1959 74.5238 96.5916 74.3256 96.8304C74.1336 97.069 73.7745 97.5213 73.5205 97.8354C73.0871 98.3817 72.8085 98.7146 72.1396 99.4936C71.9724 99.6945 71.6072 100.115 71.3347 100.442C70.5296 101.384 70.1767 101.755 70.0652 101.755C69.9538 101.755 69.3779 101.158 68.4242 100.065C67.2972 98.7586 67.1919 98.633 66.7522 98.1116C66.517 97.8228 66.2074 97.4584 66.0649 97.3014C65.9286 97.1443 65.5757 96.7172 65.2909 96.3592C65.0061 96.0011 64.5539 95.4358 64.2878 95.103C64.0153 94.7701 63.5941 94.2299 63.3464 93.9032C61.7674 91.8368 61.7983 91.8808 61.9717 91.8053C62.0089 91.7866 62.1018 91.7866 62.1699 91.8053C62.238 91.8179 63.9843 91.8619 66.0464 91.8996Z" fill="#A9DB3E" stroke="#A9DB3E" stroke-width="4" mask="url(#path-1-inside-1_129_47)"/>
<path d="M68.4064 51.4927L68.4064 51.4928L68.4157 51.4911C68.4134 51.4915 68.4122 51.4917 68.4122 51.4918C68.4122 51.4921 68.4444 51.4879 68.5265 51.4823C68.6132 51.4763 68.7269 51.4705 68.8615 51.4652C69.1293 51.4547 69.4619 51.4471 69.7937 51.444C71.0636 51.4382 71.7891 51.5299 72.8352 51.8167L72.8362 51.817C74.0198 52.1402 75.3943 52.7886 76.2598 53.4149C78.8552 55.2962 80.4011 57.6801 81.075 60.8491C81.21 61.5065 81.2273 61.6028 81.2273 62.9372L81.2273 62.9407C81.2332 64.6 81.1668 65.0953 80.7986 66.3247L80.7983 66.3261C80.4959 67.3406 80.1907 68.0589 79.739 68.8438C78.2144 71.4705 75.8177 73.3782 73.0349 74.1945L73.0344 74.1946C72.3835 74.3859 72.0145 74.4769 71.6096 74.5277C71.1916 74.5802 70.7061 74.5937 69.8177 74.5937C68.9653 74.5937 68.5943 74.591 68.2852 74.5602C67.9932 74.5311 67.7482 74.4761 67.1373 74.3317C62.9204 73.331 59.5141 69.7724 58.6296 65.408L58.6294 65.4069C58.2128 63.3635 58.3369 61.3164 59.0021 59.2923L59.0021 59.2923C59.3222 58.3182 59.6817 57.56 60.2548 56.6705C60.7963 55.8316 60.9424 55.6437 61.646 54.9123L61.6463 54.9121C62.3365 54.1942 62.7634 53.8345 63.5328 53.3257L63.5328 53.3257L63.5351 53.3242C64.6142 52.6062 65.5386 52.1844 66.8653 51.8158L66.8653 51.8159L66.8727 51.8137C67.3031 51.6906 67.4962 51.6476 68.4064 51.4927ZM81.7566 66.6116C82.1592 65.2675 82.2334 64.6708 82.2273 62.9372L80.6049 69.344C81.1002 68.4835 81.4347 67.6921 81.7566 66.6116Z" fill="#A9DB3E" stroke="#A9DB3E" stroke-width="2"/>
</g>
<defs>
<clipPath id="clip0_129_47">
<rect width="140.437" height="126" fill="white" transform="translate(0.265381)"/>
</clipPath>
</defs>
</svg>
