<svg width="126" height="121" viewBox="0 0 126 121" fill="none" xmlns="http://www.w3.org/2000/svg">
<g clip-path="url(#clip0_147_12)">
<path d="M87.3047 83.5452C91.9544 83.0639 95.4819 79.0555 95.3215 74.2449C95.1615 69.4347 91.1526 65.5863 86.3425 65.5863H86.0221C81.051 65.7467 77.203 69.9156 77.3635 74.8862C77.524 77.2915 78.4857 79.3759 79.9288 80.819C74.4773 91.5625 66.1397 99.4193 53.6332 105.993C45.1351 110.483 36.3165 112.087 27.498 110.965C20.2825 110.002 14.6706 106.796 11.1426 101.504C6.01206 93.6469 5.5312 85.1483 9.86048 76.6502C12.9071 70.5569 17.7168 66.0672 20.7634 63.8223C20.1221 61.7379 19.1599 58.2104 18.679 55.6451C-4.57046 72.4813 -2.16514 95.2504 4.88988 105.993C10.1809 114.011 20.9239 118.982 32.789 118.982C35.9956 118.982 39.2022 118.661 42.4093 117.86C62.9331 113.851 78.4862 101.664 87.3047 83.5452ZM115.525 63.6623C103.339 49.3913 85.3807 41.5346 64.857 41.5346H62.2917C60.8486 38.6484 57.802 36.7239 54.4349 36.7239H54.114C49.1439 36.8844 45.296 41.0532 45.456 46.0243C45.6164 50.8344 49.6248 54.6829 54.4349 54.6829H54.7554C58.2829 54.5224 61.3295 52.2775 62.6121 49.2309H65.4983C77.6844 49.2309 89.2287 52.7584 99.6512 59.6535C107.668 64.945 113.44 71.84 116.647 80.1777C119.373 86.9123 119.212 93.4864 116.326 99.0988C111.837 107.597 104.301 112.247 94.3597 112.247C87.946 112.247 81.8532 110.323 78.6461 108.88C76.8826 110.483 73.6755 113.048 71.4307 114.652C78.3257 117.859 85.3807 119.623 92.1149 119.623C107.508 119.623 118.892 111.124 123.221 102.626C127.871 93.326 127.55 77.2915 115.525 63.6623ZM34.0717 86.2705C34.2321 91.0811 38.2405 94.929 43.0506 94.929H43.3716C48.3422 94.7691 52.1901 90.5997 52.0296 85.6291C51.8697 80.8185 47.8608 76.9706 43.0506 76.9706H42.7302C42.4093 76.9706 41.928 76.9706 41.608 77.1305C35.0339 66.2271 32.3082 54.362 33.2704 41.5341C33.9112 31.9133 37.1183 23.5751 42.7302 16.6801C47.3799 10.7472 56.3589 7.86106 62.4522 7.7011C79.4479 7.38019 86.6629 28.5457 87.1442 37.0443C89.2287 37.5252 92.7562 38.6479 95.1615 39.4497C93.237 13.474 77.203 0.00476074 61.8109 0.00476074C47.3799 0.00476074 34.0717 10.4273 28.7802 25.8205C21.4047 46.3447 26.2149 66.0672 35.1939 81.6208C34.3926 82.743 33.9112 84.5065 34.0717 86.2705Z" fill="#A9DB3E"/>
</g>
<defs>
<clipPath id="clip0_147_12">
<rect width="126" height="120.103" fill="white"/>
</clipPath>
</defs>
</svg>
